<?xml version="1.0" encoding="UTF-8"?>
<!DOCTYPE svg PUBLIC "-//W3C//DTD SVG 1.1//EN" "http://www.w3.org/Graphics/SVG/1.1/DTD/svg11.dtd">
<svg version="1.1" xmlns="http://www.w3.org/2000/svg" xmlns:xlink="http://www.w3.org/1999/xlink" x="0" y="0" width="1080" height="1080" viewBox="0, 0, 1080, 1080">
  <g id="Layer_1">
    <g>
      <path d="M55.031,308.985 L108.159,181.268 L108.159,181.268 C108.363,180.777 108.363,180.225 108.159,179.734 L108.159,179.734 L55.52,52.86 L52.91,55.475 L179.737,107.814 L179.737,107.814 C180.227,108.016 180.776,108.016 181.265,107.813 L181.265,107.813 L309.245,54.805 L306.634,52.188 L253.539,179.731 L253.539,179.731 C253.334,180.223 253.334,180.775 253.538,181.267 L253.538,181.267 L306.317,308.453 L308.923,305.836 L181.259,253.454 L181.259,253.454 C180.77,253.253 180.221,253.254 179.732,253.457 L179.732,253.457 L52.417,306.37 L52.417,306.37 C51.397,306.794 50.914,307.964 51.338,308.984 C51.762,310.004 52.932,310.487 53.952,310.063 L181.268,257.151 L179.741,257.154 L307.405,309.537 L307.405,309.537 C307.894,309.738 308.442,309.736 308.93,309.534 C309.951,309.111 310.434,307.94 310.011,306.92 L310.011,306.92 L257.233,179.733 L257.232,181.269 L310.326,53.726 L310.326,53.726 C310.531,53.235 310.531,52.683 310.328,52.192 C309.905,51.171 308.735,50.686 307.715,51.109 L307.715,51.109 L179.735,104.118 L181.263,104.117 L54.435,51.777 L54.435,51.777 C53.946,51.575 53.396,51.576 52.906,51.779 C51.886,52.202 51.402,53.372 51.825,54.393 L51.825,54.393 L104.465,181.266 L104.465,179.732 L51.338,307.448 C50.914,308.468 51.397,309.639 52.417,310.063 C53.437,310.487 54.607,310.005 55.031,308.985 L55.031,308.985" fill="#000000"/>
      <path d="M54.434,51.777 L1.261,29.892 L1.261,29.892 C0.24,29.472 -0.929,29.959 -1.349,30.981 C-1.77,32.002 -1.283,33.171 -0.261,33.591 C-0.261,33.591 -0.261,33.591 -0.261,33.591 L52.911,55.476 C53.933,55.896 55.102,55.409 55.522,54.387 C55.942,53.366 55.455,52.197 54.434,51.777 L54.434,51.777" fill="#000000"/>
      <path d="M55.521,52.862 L33.567,-0.264 L33.567,-0.264 C33.145,-1.285 31.975,-1.77 30.955,-1.348 C29.934,-0.927 29.448,0.243 29.87,1.264 C29.87,1.264 29.87,1.264 29.87,1.264 L51.824,54.39 C52.246,55.411 53.415,55.897 54.436,55.475 C55.457,55.053 55.943,53.883 55.521,52.862 L55.521,52.862" fill="#000000"/>
      <path d="M310.328,53.722 L332.036,1.265 L332.036,1.265 C332.458,0.244 331.973,-0.926 330.952,-1.348 C329.932,-1.77 328.762,-1.285 328.34,-0.265 C328.34,-0.265 328.34,-0.265 328.34,-0.265 L306.632,52.192 C306.21,53.213 306.695,54.383 307.715,54.805 C308.736,55.227 309.906,54.742 310.328,53.722 L310.328,53.722" fill="#000000"/>
      <path d="M309.235,54.809 L361.255,33.594 L361.255,33.594 C362.278,33.177 362.769,32.01 362.352,30.987 C361.935,29.964 360.768,29.473 359.745,29.89 C359.745,29.89 359.745,29.89 359.745,29.89 L307.725,51.105 C306.702,51.522 306.211,52.689 306.628,53.712 C307.045,54.735 308.212,55.226 309.235,54.809 L309.235,54.809" fill="#000000"/>
      <path d="M307.383,309.528 L359.719,331.729 L359.719,331.729 C360.736,332.161 361.91,331.686 362.341,330.669 C362.773,329.652 362.298,328.478 361.281,328.047 L308.945,305.845 C308.945,305.845 308.945,305.845 308.945,305.845 C307.928,305.414 306.754,305.889 306.323,306.905 C305.891,307.922 306.366,309.096 307.383,309.528 L307.383,309.528" fill="#000000"/>
      <path d="M306.318,308.456 L328.342,361.27 L328.342,361.27 C328.767,362.289 329.938,362.771 330.958,362.346 C331.977,361.921 332.459,360.75 332.034,359.73 C332.034,359.73 332.034,359.73 332.034,359.73 L310.01,306.917 C309.585,305.897 308.414,305.416 307.394,305.841 C306.375,306.266 305.893,307.437 306.318,308.456 L306.318,308.456" fill="#000000"/>
      <path d="M51.335,307.457 L29.868,359.74 L29.868,359.74 C29.449,360.762 29.937,361.931 30.959,362.35 C31.981,362.77 33.149,362.281 33.569,361.26 C33.569,361.26 33.569,361.26 33.569,361.26 L55.035,308.976 C55.454,307.954 54.966,306.786 53.944,306.366 C52.923,305.947 51.754,306.435 51.335,307.457 L51.335,307.457" fill="#000000"/>
      <path d="M52.424,306.367 L-0.261,328.039 L-0.261,328.039 C-1.282,328.459 -1.77,329.627 -1.35,330.649 C-0.929,331.671 0.239,332.158 1.261,331.738 C1.261,331.738 1.261,331.738 1.261,331.738 L53.946,310.066 C54.967,309.646 55.455,308.477 55.034,307.456 C54.614,306.434 53.445,305.947 52.424,306.367 L52.424,306.367" fill="#000000"/>
      <path d="M128.469,231.578 L1.268,178.653 L1.261,182.35 L128.577,129.987 L128.577,129.987 C129.07,129.784 129.462,129.393 129.665,128.9 L129.665,128.9 L182.349,1.263 L178.653,1.267 L231.667,128.888 L231.667,128.888 C231.871,129.378 232.261,129.768 232.752,129.97 L232.752,129.97 L359.737,182.349 L359.731,178.654 L232.745,231.585 L232.745,231.585 C232.258,231.788 231.872,232.175 231.669,232.661 L231.669,232.661 L178.654,359.73 L182.347,359.733 L129.547,232.657 L129.547,232.657 C129.124,231.637 127.953,231.154 126.933,231.578 C125.913,232.002 125.43,233.172 125.853,234.192 L178.653,361.267 L178.653,361.267 C178.856,361.755 179.243,362.143 179.73,362.346 C180.749,362.771 181.921,362.289 182.346,361.27 L182.346,361.27 L235.36,234.201 L234.284,235.277 L361.27,182.346 L361.27,182.346 C361.759,182.142 362.147,181.753 362.349,181.263 C362.77,180.242 362.284,179.072 361.263,178.651 L361.263,178.651 L234.277,126.272 L235.361,127.354 L182.347,-0.267 L182.347,-0.267 C182.143,-0.757 181.754,-1.146 181.263,-1.349 C180.242,-1.77 179.073,-1.284 178.651,-0.263 L178.651,-0.263 L125.968,127.374 L127.056,126.287 L-0.261,178.65 L-0.261,178.65 C-0.752,178.852 -1.143,179.241 -1.347,179.732 C-1.771,180.751 -1.288,181.922 -0.268,182.347 L-0.268,182.347 L126.932,235.271 C127.952,235.696 129.123,235.213 129.547,234.193 C129.971,233.173 129.489,232.003 128.469,231.578 L128.469,231.578" fill="#000000"/>
    </g>
    <g>
      <path d="M415.031,308.985 L468.159,181.268 L468.159,181.268 C468.363,180.777 468.363,180.225 468.159,179.734 L468.159,179.734 L415.52,52.86 L412.91,55.475 L539.737,107.814 L539.737,107.814 C540.227,108.016 540.776,108.016 541.265,107.813 L541.265,107.813 L669.245,54.805 L666.634,52.188 L613.539,179.731 L613.539,179.731 C613.335,180.223 613.334,180.775 613.538,181.267 L613.538,181.267 L666.317,308.453 L668.923,305.836 L541.259,253.454 L541.259,253.454 C540.77,253.253 540.221,253.254 539.733,253.457 L539.733,253.457 L412.417,306.37 L412.417,306.37 C411.397,306.794 410.914,307.964 411.338,308.984 C411.762,310.004 412.932,310.487 413.952,310.063 L541.268,257.151 L539.741,257.154 L667.405,309.537 L667.405,309.537 C667.894,309.738 668.442,309.736 668.93,309.534 C669.951,309.11 670.434,307.94 670.011,306.92 L670.011,306.92 L617.233,179.733 L617.232,181.269 L670.326,53.725 L670.326,53.725 C670.531,53.235 670.531,52.683 670.328,52.192 C669.905,51.171 668.735,50.686 667.715,51.109 L667.715,51.109 L539.735,104.118 L541.263,104.117 L414.435,51.777 L414.435,51.777 C413.946,51.575 413.396,51.576 412.906,51.779 C411.886,52.202 411.402,53.372 411.825,54.393 L411.825,54.393 L464.465,181.266 L464.465,179.732 L411.338,307.448 C410.914,308.468 411.397,309.639 412.417,310.063 C413.437,310.487 414.607,310.004 415.031,308.985 L415.031,308.985" fill="#000000"/>
      <path d="M414.434,51.777 L361.261,29.892 L361.261,29.892 C360.24,29.472 359.071,29.959 358.651,30.981 C358.23,32.002 358.717,33.171 359.739,33.591 C359.739,33.591 359.739,33.591 359.739,33.591 L412.911,55.476 C413.933,55.896 415.102,55.409 415.522,54.387 C415.942,53.366 415.455,52.197 414.434,51.777 L414.434,51.777" fill="#000000"/>
      <path d="M415.521,52.862 L393.567,-0.264 L393.567,-0.264 C393.145,-1.285 391.975,-1.77 390.955,-1.348 C389.934,-0.927 389.448,0.243 389.87,1.264 C389.87,1.264 389.87,1.264 389.87,1.264 L411.824,54.39 C412.246,55.411 413.416,55.896 414.436,55.475 C415.457,55.053 415.943,53.883 415.521,52.862 L415.521,52.862" fill="#000000"/>
      <path d="M670.328,53.722 L692.036,1.265 L692.036,1.265 C692.458,0.244 691.973,-0.926 690.953,-1.348 C689.932,-1.77 688.762,-1.285 688.34,-0.265 C688.34,-0.265 688.34,-0.265 688.34,-0.265 L666.632,52.192 C666.21,53.213 666.695,54.383 667.715,54.805 C668.736,55.227 669.906,54.742 670.328,53.722 L670.328,53.722" fill="#000000"/>
      <path d="M669.235,54.809 L721.255,33.594 L721.255,33.594 C722.278,33.177 722.769,32.009 722.352,30.987 C721.935,29.964 720.768,29.473 719.745,29.89 C719.745,29.89 719.745,29.89 719.745,29.89 L667.725,51.105 C666.702,51.522 666.211,52.689 666.628,53.712 C667.045,54.735 668.213,55.226 669.235,54.809 L669.235,54.809" fill="#000000"/>
      <path d="M667.383,309.528 L719.719,331.729 L719.719,331.729 C720.736,332.161 721.91,331.686 722.341,330.669 C722.773,329.652 722.298,328.478 721.281,328.047 L668.945,305.845 C668.945,305.845 668.945,305.845 668.945,305.845 C667.928,305.414 666.754,305.889 666.323,306.905 C665.891,307.922 666.366,309.096 667.383,309.528 L667.383,309.528" fill="#000000"/>
      <path d="M666.318,308.456 L688.342,361.27 L688.342,361.27 C688.767,362.289 689.938,362.771 690.958,362.346 C691.977,361.921 692.459,360.75 692.034,359.73 C692.034,359.73 692.034,359.73 692.034,359.73 L670.01,306.917 C669.585,305.897 668.414,305.415 667.394,305.841 C666.375,306.266 665.893,307.437 666.318,308.456 L666.318,308.456" fill="#000000"/>
      <path d="M411.335,307.457 L389.868,359.74 L389.868,359.74 C389.449,360.762 389.937,361.931 390.959,362.35 C391.981,362.77 393.149,362.281 393.569,361.26 C393.569,361.26 393.569,361.26 393.569,361.26 L415.035,308.976 C415.454,307.954 414.966,306.786 413.944,306.366 C412.923,305.947 411.754,306.435 411.335,307.457 L411.335,307.457" fill="#000000"/>
      <path d="M412.424,306.367 L359.739,328.038 L359.739,328.038 C358.718,328.459 358.23,329.627 358.65,330.649 C359.071,331.67 360.239,332.158 361.261,331.738 C361.261,331.738 361.261,331.738 361.261,331.738 L413.946,310.066 C414.967,309.646 415.455,308.477 415.034,307.456 C414.614,306.434 413.446,305.947 412.424,306.367 L412.424,306.367" fill="#000000"/>
      <path d="M488.469,231.578 L361.268,178.653 L361.261,182.35 L488.577,129.987 L488.577,129.987 C489.07,129.784 489.462,129.393 489.665,128.9 L489.665,128.9 L542.349,1.263 L538.653,1.267 L591.668,128.888 L591.668,128.888 C591.871,129.378 592.261,129.768 592.752,129.97 L592.752,129.97 L719.737,182.349 L719.731,178.654 L592.745,231.585 L592.745,231.585 C592.258,231.788 591.872,232.175 591.669,232.661 L591.669,232.661 L538.654,359.73 L542.347,359.733 L489.547,232.657 L489.547,232.657 C489.124,231.637 487.953,231.154 486.933,231.578 C485.913,232.002 485.43,233.172 485.854,234.192 L538.653,361.267 L538.653,361.267 C538.856,361.755 539.243,362.142 539.73,362.346 C540.749,362.771 541.921,362.289 542.346,361.27 L542.346,361.27 L595.36,234.201 L594.284,235.277 L721.27,182.346 L721.27,182.346 C721.759,182.142 722.147,181.752 722.349,181.263 C722.77,180.241 722.284,179.072 721.263,178.651 L721.263,178.651 L594.277,126.272 L595.362,127.354 L542.347,-0.267 L542.347,-0.267 C542.143,-0.757 541.754,-1.146 541.263,-1.349 C540.242,-1.77 539.073,-1.284 538.651,-0.263 L538.651,-0.263 L485.968,127.374 L487.056,126.287 L359.739,178.65 L359.739,178.65 C359.248,178.852 358.858,179.241 358.654,179.732 C358.229,180.751 358.712,181.922 359.732,182.346 L359.732,182.346 L486.932,235.271 C487.952,235.696 489.123,235.213 489.547,234.193 C489.971,233.173 489.489,232.003 488.469,231.578 L488.469,231.578" fill="#000000"/>
    </g>
    <g>
      <path d="M55.031,668.985 L108.158,541.268 L108.158,541.268 C108.363,540.777 108.363,540.225 108.159,539.734 L108.159,539.734 L55.52,412.86 L52.909,415.475 L179.737,467.814 L179.737,467.814 C180.226,468.016 180.776,468.016 181.265,467.813 L181.265,467.813 L309.245,414.805 L306.633,412.188 L253.539,539.731 L253.539,539.731 C253.334,540.223 253.334,540.775 253.538,541.267 L253.538,541.267 L306.316,668.453 L308.923,665.836 L181.259,613.454 L181.259,613.454 C180.77,613.253 180.221,613.254 179.732,613.457 L179.732,613.457 L52.417,666.37 L52.417,666.37 C51.397,666.794 50.914,667.964 51.338,668.984 C51.762,670.004 52.932,670.487 53.952,670.063 L181.267,617.151 L179.741,617.154 L307.404,669.537 L307.404,669.537 C307.893,669.738 308.442,669.737 308.93,669.534 C309.95,669.111 310.434,667.94 310.011,666.92 L310.011,666.92 L257.232,539.734 L257.232,541.269 L310.326,413.726 L310.326,413.726 C310.531,413.235 310.531,412.683 310.328,412.192 C309.905,411.171 308.735,410.686 307.715,411.109 L307.715,411.109 L179.735,464.118 L181.263,464.117 L54.435,411.777 L54.435,411.777 C53.945,411.575 53.395,411.576 52.906,411.779 C51.886,412.202 51.402,413.372 51.825,414.393 L51.825,414.393 L104.465,541.266 L104.465,539.732 L51.338,667.448 C50.914,668.468 51.397,669.639 52.416,670.063 C53.436,670.487 54.607,670.005 55.031,668.985 L55.031,668.985" fill="#000000"/>
      <path d="M54.434,411.777 L1.261,389.893 L1.261,389.893 C0.24,389.472 -0.929,389.959 -1.35,390.981 C-1.77,392.002 -1.283,393.171 -0.261,393.591 C-0.261,393.591 -0.261,393.591 -0.261,393.591 L52.911,415.476 C53.933,415.896 55.101,415.409 55.522,414.388 C55.942,413.366 55.455,412.197 54.434,411.777 L54.434,411.777" fill="#000000"/>
      <path d="M55.521,412.862 L33.567,359.736 L33.567,359.736 C33.145,358.715 31.975,358.23 30.954,358.652 C29.934,359.074 29.448,360.243 29.87,361.264 C29.87,361.264 29.87,361.264 29.87,361.264 L51.824,414.39 C52.246,415.411 53.415,415.897 54.436,415.475 C55.457,415.053 55.943,413.883 55.521,412.862 L55.521,412.862" fill="#000000"/>
      <path d="M310.328,413.722 L332.036,361.265 L332.036,361.265 C332.458,360.244 331.973,359.074 330.952,358.652 C329.932,358.23 328.762,358.715 328.34,359.735 C328.34,359.735 328.34,359.735 328.34,359.735 L306.632,412.192 C306.209,413.213 306.694,414.383 307.715,414.805 C308.736,415.227 309.905,414.742 310.328,413.722 L310.328,413.722" fill="#000000"/>
      <path d="M309.235,414.809 L361.255,393.594 L361.255,393.594 C362.278,393.177 362.769,392.01 362.352,390.987 C361.935,389.964 360.767,389.473 359.745,389.89 C359.745,389.89 359.745,389.89 359.745,389.89 L307.725,411.105 C306.702,411.522 306.211,412.69 306.628,413.712 C307.045,414.735 308.212,415.226 309.235,414.809 L309.235,414.809" fill="#000000"/>
      <path d="M307.383,669.528 L359.719,691.729 L359.719,691.729 C360.736,692.161 361.91,691.686 362.341,690.669 C362.772,689.652 362.298,688.478 361.281,688.047 L308.945,665.845 C308.945,665.845 308.945,665.845 308.945,665.845 C307.928,665.414 306.754,665.889 306.322,666.906 C305.891,667.922 306.366,669.096 307.383,669.528 L307.383,669.528" fill="#000000"/>
      <path d="M306.318,668.456 L328.342,721.27 L328.342,721.27 C328.767,722.289 329.938,722.771 330.957,722.346 C331.977,721.921 332.459,720.75 332.034,719.73 C332.034,719.73 332.034,719.73 332.034,719.73 L310.01,666.917 C309.584,665.897 308.413,665.416 307.394,665.841 C306.374,666.266 305.893,667.437 306.318,668.456 L306.318,668.456" fill="#000000"/>
      <path d="M51.335,667.457 L29.868,719.74 L29.868,719.74 C29.449,720.762 29.937,721.931 30.959,722.35 C31.98,722.77 33.149,722.281 33.568,721.26 C33.568,721.26 33.568,721.26 33.568,721.26 L55.035,668.976 C55.454,667.954 54.966,666.786 53.944,666.366 C52.922,665.947 51.754,666.435 51.335,667.457 L51.335,667.457" fill="#000000"/>
      <path d="M52.424,666.367 L-0.261,688.039 L-0.261,688.039 C-1.283,688.459 -1.77,689.628 -1.35,690.649 C-0.93,691.671 0.239,692.158 1.261,691.738 C1.261,691.738 1.261,691.738 1.261,691.738 L53.945,670.066 C54.967,669.646 55.454,668.477 55.034,667.456 C54.614,666.434 53.445,665.947 52.424,666.367 L52.424,666.367" fill="#000000"/>
      <path d="M128.469,591.578 L1.268,538.654 L1.261,542.35 L128.577,489.987 L128.577,489.987 C129.07,489.784 129.462,489.393 129.665,488.9 L129.665,488.9 L182.349,361.263 L178.653,361.267 L231.667,488.888 L231.667,488.888 C231.871,489.378 232.261,489.768 232.752,489.97 L232.752,489.97 L359.737,542.349 L359.73,538.654 L232.745,591.585 L232.745,591.585 C232.258,591.788 231.871,592.175 231.669,592.661 L231.669,592.661 L178.654,719.73 L182.347,719.733 L129.547,592.657 L129.547,592.657 C129.123,591.637 127.953,591.154 126.933,591.578 C125.913,592.002 125.429,593.172 125.853,594.192 L178.653,721.267 L178.653,721.267 C178.855,721.755 179.243,722.143 179.73,722.346 C180.749,722.771 181.92,722.29 182.346,721.27 L182.346,721.27 L235.36,594.201 L234.284,595.277 L361.269,542.346 L361.269,542.346 C361.758,542.142 362.147,541.753 362.349,541.263 C362.77,540.242 362.284,539.072 361.262,538.651 L361.262,538.651 L234.277,486.272 L235.361,487.354 L182.347,359.733 L182.347,359.733 C182.143,359.243 181.753,358.854 181.263,358.651 C180.242,358.23 179.073,358.716 178.651,359.737 L178.651,359.737 L125.968,487.374 L127.056,486.287 L-0.261,538.65 L-0.261,538.65 C-0.752,538.852 -1.143,539.241 -1.347,539.732 C-1.771,540.752 -1.288,541.922 -0.268,542.347 L-0.268,542.347 L126.932,595.271 C127.952,595.696 129.122,595.213 129.547,594.193 C129.971,593.173 129.488,592.003 128.469,591.578 L128.469,591.578" fill="#000000"/>
    </g>
    <g>
      <path d="M415.036,668.983 L468.163,541.267 L468.163,541.267 C468.367,540.776 468.367,540.223 468.164,539.732 L468.164,539.732 L415.524,412.858 L412.914,415.473 L539.741,467.813 L539.741,467.813 C540.231,468.015 540.78,468.014 541.27,467.812 L541.27,467.812 L669.25,414.803 L666.638,412.187 L613.543,539.73 L613.543,539.73 C613.339,540.221 613.338,540.774 613.542,541.265 L613.542,541.265 L666.321,668.452 L668.927,665.835 L541.263,613.452 L541.263,613.452 C540.774,613.251 540.225,613.253 539.737,613.456 L539.737,613.456 L412.422,666.368 L412.422,666.368 C411.402,666.792 410.918,667.963 411.342,668.982 C411.766,670.003 412.937,670.486 413.957,670.062 L541.272,617.149 L539.745,617.153 L667.409,669.535 L667.409,669.535 C667.898,669.736 668.446,669.735 668.935,669.532 C669.955,669.109 670.439,667.939 670.015,666.919 L670.015,666.919 L617.237,539.732 L617.236,541.267 L670.331,413.724 L670.331,413.724 C670.535,413.233 670.535,412.681 670.332,412.19 C669.909,411.17 668.739,410.685 667.719,411.108 L667.719,411.108 L539.739,464.116 L541.267,464.115 L414.44,411.776 L414.44,411.776 C413.95,411.574 413.4,411.574 412.91,411.777 C411.89,412.201 411.406,413.371 411.829,414.391 L411.829,414.391 L464.469,541.265 L464.47,539.73 L411.342,667.447 C410.918,668.467 411.401,669.637 412.421,670.062 C413.441,670.486 414.611,670.003 415.036,668.983 L415.036,668.983" fill="#DB0808"/>
      <path d="M414.438,411.775 L361.266,389.891 L361.266,389.891 C360.244,389.471 359.075,389.958 358.655,390.979 C358.234,392.001 358.722,393.17 359.743,393.59 C359.743,393.59 359.743,393.59 359.743,393.59 L412.916,415.474 C413.937,415.895 415.106,415.407 415.526,414.386 C415.947,413.364 415.459,412.196 414.438,411.775 L414.438,411.775" fill="#DB0808"/>
      <path d="M415.525,412.861 L393.571,359.735 L393.571,359.735 C393.149,358.714 391.98,358.228 390.959,358.65 C389.938,359.072 389.452,360.241 389.874,361.262 C389.874,361.262 389.874,361.262 389.874,361.262 L411.828,414.389 C412.25,415.409 413.42,415.895 414.441,415.473 C415.461,415.051 415.947,413.882 415.525,412.861 L415.525,412.861" fill="#DB0808"/>
      <path d="M670.332,413.72 L692.04,361.263 L692.04,361.263 C692.462,360.243 691.977,359.073 690.957,358.65 C689.936,358.228 688.766,358.713 688.344,359.734 C688.344,359.734 688.344,359.734 688.344,359.734 L666.636,412.191 C666.214,413.211 666.699,414.381 667.72,414.803 C668.74,415.226 669.91,414.741 670.332,413.72 L670.332,413.72" fill="#DB0808"/>
      <path d="M669.24,414.807 L721.26,393.592 L721.26,393.592 C722.282,393.175 722.773,392.008 722.356,390.985 C721.939,389.962 720.772,389.471 719.749,389.889 C719.749,389.889 719.749,389.889 719.749,389.889 L667.729,411.104 C666.706,411.521 666.215,412.688 666.632,413.711 C667.049,414.733 668.217,415.224 669.24,414.807 L669.24,414.807" fill="#DB0808"/>
      <path d="M667.387,669.526 L719.723,691.728 L719.723,691.728 C720.74,692.159 721.914,691.684 722.345,690.668 C722.777,689.651 722.302,688.477 721.285,688.045 L668.949,665.844 C668.949,665.844 668.949,665.844 668.949,665.844 C667.932,665.412 666.758,665.887 666.327,666.904 C665.896,667.921 666.37,669.095 667.387,669.526 L667.387,669.526" fill="#DB0808"/>
      <path d="M666.322,668.455 L688.346,721.268 L688.346,721.268 C688.771,722.288 689.942,722.77 690.962,722.344 C691.981,721.919 692.463,720.748 692.038,719.729 C692.038,719.729 692.038,719.729 692.038,719.729 L670.014,666.915 C669.589,665.896 668.418,665.414 667.398,665.839 C666.379,666.264 665.897,667.435 666.322,668.455 L666.322,668.455" fill="#DB0808"/>
      <path d="M411.339,667.455 L389.873,719.739 L389.873,719.739 C389.453,720.761 389.941,721.929 390.963,722.349 C391.985,722.768 393.153,722.28 393.573,721.258 C393.573,721.258 393.573,721.258 393.573,721.258 L415.039,668.975 C415.459,667.953 414.97,666.784 413.949,666.365 C412.927,665.945 411.758,666.434 411.339,667.455 L411.339,667.455" fill="#DB0808"/>
      <path d="M412.428,666.365 L359.743,688.037 L359.743,688.037 C358.722,688.457 358.234,689.626 358.655,690.647 C359.075,691.669 360.244,692.156 361.265,691.736 C361.265,691.736 361.265,691.736 361.265,691.736 L413.95,670.065 C414.971,669.644 415.459,668.476 415.039,667.454 C414.618,666.433 413.45,665.945 412.428,666.365 L412.428,666.365" fill="#DB0808"/>
      <path d="M488.473,591.577 L361.273,538.652 L361.265,542.348 L488.582,489.985 L488.582,489.985 C489.075,489.782 489.466,489.391 489.67,488.898 L489.67,488.898 L542.353,361.262 L538.657,361.266 L591.672,488.887 L591.672,488.887 C591.875,489.377 592.265,489.766 592.756,489.968 L592.756,489.968 L719.742,542.347 L719.735,538.652 L592.749,591.584 L592.749,591.584 C592.263,591.786 591.876,592.173 591.673,592.659 L591.673,592.659 L538.658,719.728 L542.351,719.731 L489.552,592.656 L489.552,592.656 C489.128,591.636 487.957,591.152 486.937,591.576 C485.917,592 485.434,593.171 485.858,594.191 L538.657,721.266 L538.657,721.266 C538.86,721.753 539.247,722.141 539.734,722.344 C540.754,722.77 541.925,722.288 542.35,721.269 L542.35,721.269 L595.365,594.2 L594.288,595.276 L721.274,542.344 L721.274,542.344 C721.763,542.141 722.151,541.751 722.353,541.261 C722.774,540.24 722.288,539.071 721.267,538.65 L721.267,538.65 L594.281,486.271 L595.366,487.352 L542.351,359.731 L542.351,359.731 C542.148,359.241 541.758,358.852 541.267,358.65 C540.246,358.228 539.077,358.714 538.656,359.735 L538.656,359.735 L485.972,487.372 L487.06,486.286 L359.744,538.649 L359.744,538.649 C359.252,538.851 358.862,539.24 358.658,539.73 C358.233,540.75 358.716,541.921 359.736,542.345 L359.736,542.345 L486.936,595.27 C487.956,595.694 489.127,595.211 489.551,594.192 C489.976,593.172 489.493,592.001 488.473,591.577 L488.473,591.577" fill="#DB0808"/>
    </g>
    <g>
      <path d="M775.031,308.985 L828.159,181.268 L828.159,181.268 C828.363,180.777 828.363,180.225 828.159,179.734 L828.159,179.734 L775.52,52.86 L772.91,55.475 L899.737,107.814 L899.737,107.814 C900.227,108.016 900.776,108.016 901.265,107.813 L901.265,107.813 L1029.245,54.805 L1026.634,52.188 L973.539,179.731 L973.539,179.731 C973.335,180.223 973.334,180.775 973.538,181.267 L973.538,181.267 L1026.317,308.453 L1028.923,305.836 L901.259,253.454 L901.259,253.454 C900.77,253.253 900.221,253.254 899.733,253.457 L899.733,253.457 L772.417,306.37 L772.417,306.37 C771.397,306.794 770.914,307.964 771.338,308.984 C771.762,310.004 772.932,310.487 773.952,310.063 L901.268,257.151 L899.741,257.154 L1027.405,309.537 L1027.405,309.537 C1027.894,309.738 1028.442,309.736 1028.93,309.534 C1029.951,309.111 1030.434,307.94 1030.011,306.92 L1030.011,306.92 L977.233,179.733 L977.232,181.269 L1030.326,53.726 L1030.326,53.726 C1030.531,53.235 1030.531,52.683 1030.328,52.192 C1029.905,51.171 1028.735,50.686 1027.715,51.109 L1027.715,51.109 L899.735,104.118 L901.263,104.117 L774.435,51.777 L774.435,51.777 C773.946,51.575 773.396,51.576 772.906,51.779 C771.886,52.202 771.402,53.372 771.825,54.393 L771.825,54.393 L824.465,181.266 L824.465,179.732 L771.338,307.448 C770.914,308.468 771.397,309.639 772.417,310.063 C773.437,310.487 774.607,310.005 775.031,308.985 L775.031,308.985" fill="#000000"/>
      <path d="M774.434,51.777 L721.261,29.892 L721.261,29.892 C720.24,29.472 719.071,29.959 718.651,30.981 C718.23,32.002 718.717,33.171 719.739,33.591 C719.739,33.591 719.739,33.591 719.739,33.591 L772.911,55.476 C773.933,55.896 775.102,55.409 775.522,54.387 C775.942,53.366 775.455,52.197 774.434,51.777 L774.434,51.777" fill="#000000"/>
      <path d="M775.521,52.862 L753.567,-0.264 L753.567,-0.264 C753.145,-1.285 751.975,-1.77 750.955,-1.348 C749.934,-0.927 749.448,0.243 749.87,1.264 C749.87,1.264 749.87,1.264 749.87,1.264 L771.824,54.39 C772.246,55.411 773.416,55.897 774.436,55.475 C775.457,55.053 775.943,53.883 775.521,52.862 L775.521,52.862" fill="#000000"/>
      <path d="M1030.328,53.722 L1052.036,1.265 L1052.036,1.265 C1052.458,0.244 1051.973,-0.926 1050.953,-1.348 C1049.932,-1.77 1048.762,-1.285 1048.34,-0.265 C1048.34,-0.265 1048.34,-0.265 1048.34,-0.265 L1026.632,52.192 C1026.21,53.213 1026.695,54.383 1027.715,54.805 C1028.736,55.227 1029.906,54.742 1030.328,53.722 L1030.328,53.722" fill="#000000"/>
      <path d="M1029.235,54.809 L1081.255,33.594 L1081.255,33.594 C1082.278,33.177 1082.769,32.01 1082.352,30.987 C1081.935,29.964 1080.768,29.473 1079.745,29.89 C1079.745,29.89 1079.745,29.89 1079.745,29.89 L1027.725,51.105 C1026.702,51.522 1026.211,52.689 1026.628,53.712 C1027.045,54.735 1028.213,55.226 1029.235,54.809 L1029.235,54.809" fill="#000000"/>
      <path d="M1027.383,309.528 L1079.719,331.729 L1079.719,331.729 C1080.736,332.161 1081.91,331.686 1082.341,330.669 C1082.773,329.652 1082.298,328.478 1081.281,328.047 L1028.945,305.845 C1028.945,305.845 1028.945,305.845 1028.945,305.845 C1027.928,305.414 1026.754,305.889 1026.323,306.905 C1025.891,307.922 1026.366,309.096 1027.383,309.528 L1027.383,309.528" fill="#000000"/>
      <path d="M1026.318,308.456 L1048.342,361.27 L1048.342,361.27 C1048.767,362.289 1049.938,362.771 1050.958,362.346 C1051.977,361.921 1052.459,360.75 1052.034,359.73 C1052.034,359.73 1052.034,359.73 1052.034,359.73 L1030.01,306.917 C1029.585,305.897 1028.414,305.416 1027.394,305.841 C1026.375,306.266 1025.893,307.437 1026.318,308.456 L1026.318,308.456" fill="#000000"/>
      <path d="M771.335,307.457 L749.868,359.74 L749.868,359.74 C749.449,360.762 749.937,361.931 750.959,362.35 C751.981,362.77 753.149,362.281 753.569,361.26 C753.569,361.26 753.569,361.26 753.569,361.26 L775.035,308.976 C775.455,307.954 774.966,306.786 773.944,306.366 C772.923,305.947 771.754,306.435 771.335,307.457 L771.335,307.457" fill="#000000"/>
      <path d="M772.424,306.367 L719.739,328.039 L719.739,328.039 C718.718,328.459 718.23,329.627 718.65,330.649 C719.071,331.671 720.239,332.158 721.261,331.738 C721.261,331.738 721.261,331.738 721.261,331.738 L773.946,310.066 C774.967,309.646 775.455,308.477 775.034,307.456 C774.614,306.434 773.446,305.947 772.424,306.367 L772.424,306.367" fill="#000000"/>
      <path d="M848.469,231.578 L721.268,178.653 L721.261,182.35 L848.577,129.987 L848.577,129.987 C849.07,129.784 849.462,129.393 849.665,128.9 L849.665,128.9 L902.349,1.263 L898.653,1.267 L951.668,128.888 L951.668,128.888 C951.871,129.378 952.261,129.768 952.752,129.97 L952.752,129.97 L1079.737,182.349 L1079.731,178.654 L952.745,231.585 L952.745,231.585 C952.258,231.788 951.872,232.175 951.669,232.661 L951.669,232.661 L898.654,359.73 L902.347,359.733 L849.547,232.657 L849.547,232.657 C849.124,231.637 847.953,231.154 846.933,231.578 C845.913,232.002 845.43,233.172 845.854,234.192 L898.653,361.267 L898.653,361.267 C898.856,361.755 899.243,362.143 899.73,362.346 C900.749,362.771 901.921,362.289 902.346,361.27 L902.346,361.27 L955.36,234.201 L954.284,235.277 L1081.27,182.346 L1081.27,182.346 C1081.759,182.142 1082.147,181.753 1082.349,181.263 C1082.77,180.242 1082.284,179.072 1081.263,178.651 L1081.263,178.651 L954.277,126.272 L955.362,127.354 L902.347,-0.267 L902.347,-0.267 C902.143,-0.757 901.754,-1.146 901.263,-1.349 C900.242,-1.77 899.073,-1.284 898.651,-0.263 L898.651,-0.263 L845.968,127.374 L847.056,126.287 L719.739,178.65 L719.739,178.65 C719.248,178.852 718.858,179.241 718.654,179.732 C718.229,180.751 718.712,181.922 719.732,182.347 L719.732,182.347 L846.932,235.271 C847.952,235.696 849.123,235.213 849.547,234.193 C849.971,233.173 849.489,232.003 848.469,231.578 L848.469,231.578" fill="#000000"/>
    </g>
    <g>
      <path d="M775.035,668.985 L828.163,541.268 L828.163,541.268 C828.367,540.777 828.367,540.225 828.163,539.734 L828.163,539.734 L775.524,412.86 L772.913,415.475 L899.741,467.814 L899.741,467.814 C900.23,468.016 900.78,468.016 901.269,467.813 L901.269,467.813 L1029.249,414.805 L1026.637,412.189 L973.543,539.732 L973.543,539.732 C973.338,540.223 973.338,540.775 973.542,541.267 L973.542,541.267 L1026.32,668.453 L1028.927,665.837 L901.263,613.454 L901.263,613.454 C900.774,613.253 900.225,613.254 899.736,613.457 L899.736,613.457 L772.421,666.37 L772.421,666.37 C771.401,666.794 770.918,667.964 771.342,668.984 C771.766,670.004 772.936,670.487 773.956,670.064 L901.271,617.151 L899.745,617.155 L1027.408,669.537 L1027.408,669.537 C1027.897,669.738 1028.446,669.737 1028.934,669.534 C1029.954,669.111 1030.438,667.94 1030.015,666.92 L1030.015,666.92 L977.237,539.734 L977.236,541.269 L1030.33,413.726 L1030.33,413.726 C1030.535,413.235 1030.535,412.683 1030.332,412.192 C1029.909,411.171 1028.739,410.687 1027.719,411.109 L1027.719,411.109 L899.739,464.118 L901.267,464.117 L774.439,411.778 L774.439,411.778 C773.949,411.576 773.399,411.576 772.91,411.779 C771.89,412.202 771.406,413.373 771.829,414.393 L771.829,414.393 L824.469,541.267 L824.469,539.732 L771.342,667.449 C770.918,668.468 771.401,669.639 772.421,670.063 C773.44,670.488 774.611,670.005 775.035,668.985 L775.035,668.985" fill="#000000"/>
      <path d="M774.438,411.777 L721.265,389.893 L721.265,389.893 C720.244,389.472 719.075,389.96 718.654,390.981 C718.234,392.002 718.721,393.171 719.743,393.592 C719.743,393.592 719.743,393.592 719.743,393.592 L772.915,415.476 C773.937,415.896 775.106,415.409 775.526,414.388 C775.946,413.366 775.459,412.197 774.438,411.777 L774.438,411.777" fill="#000000"/>
      <path d="M775.525,412.863 L753.571,359.736 L753.571,359.736 C753.149,358.716 751.979,358.23 750.958,358.652 C749.938,359.074 749.452,360.243 749.874,361.264 C749.874,361.264 749.874,361.264 749.874,361.264 L771.828,414.39 C772.25,415.411 773.419,415.897 774.44,415.475 C775.461,415.053 775.947,413.883 775.525,412.863 L775.525,412.863" fill="#000000"/>
      <path d="M1030.332,413.722 L1052.04,361.265 L1052.04,361.265 C1052.462,360.244 1051.977,359.075 1050.956,358.652 C1049.936,358.23 1048.766,358.715 1048.344,359.736 C1048.344,359.736 1048.344,359.736 1048.344,359.736 L1026.636,412.192 C1026.214,413.213 1026.698,414.383 1027.719,414.805 C1028.74,415.228 1029.91,414.743 1030.332,413.722 L1030.332,413.722" fill="#000000"/>
      <path d="M1029.239,414.809 L1081.259,393.594 L1081.259,393.594 C1082.282,393.177 1082.773,392.01 1082.356,390.987 C1081.939,389.964 1080.771,389.473 1079.749,389.89 C1079.749,389.89 1079.749,389.89 1079.749,389.89 L1027.729,411.105 C1026.706,411.522 1026.215,412.69 1026.632,413.712 C1027.049,414.735 1028.216,415.226 1029.239,414.809 L1029.239,414.809" fill="#000000"/>
      <path d="M1027.387,669.528 L1079.723,691.73 L1079.723,691.73 C1080.74,692.161 1081.914,691.686 1082.345,690.669 C1082.776,689.653 1082.302,688.479 1081.285,688.047 L1028.949,665.846 C1028.949,665.846 1028.949,665.846 1028.949,665.846 C1027.932,665.414 1026.758,665.889 1026.327,666.906 C1025.895,667.923 1026.37,669.097 1027.387,669.528 L1027.387,669.528" fill="#000000"/>
      <path d="M1026.322,668.457 L1048.346,721.27 L1048.346,721.27 C1048.771,722.29 1049.942,722.771 1050.961,722.346 C1051.981,721.921 1052.463,720.75 1052.038,719.731 C1052.038,719.731 1052.038,719.731 1052.038,719.731 L1030.014,666.917 C1029.589,665.898 1028.417,665.416 1027.398,665.841 C1026.379,666.266 1025.897,667.437 1026.322,668.457 L1026.322,668.457" fill="#000000"/>
      <path d="M771.339,667.457 L749.872,719.741 L749.872,719.741 C749.453,720.762 749.941,721.931 750.963,722.35 C751.984,722.77 753.153,722.282 753.572,721.26 C753.572,721.26 753.572,721.26 753.572,721.26 L775.039,668.976 C775.458,667.955 774.97,666.786 773.948,666.367 C772.927,665.947 771.758,666.435 771.339,667.457 L771.339,667.457" fill="#000000"/>
      <path d="M772.428,666.367 L719.743,688.039 L719.743,688.039 C718.722,688.459 718.234,689.628 718.654,690.649 C719.074,691.671 720.243,692.158 721.265,691.738 C721.265,691.738 721.265,691.738 721.265,691.738 L773.95,670.066 C774.971,669.646 775.458,668.477 775.038,667.456 C774.618,666.434 773.449,665.947 772.428,666.367 L772.428,666.367" fill="#000000"/>
      <path d="M848.473,591.578 L721.272,538.654 L721.265,542.35 L848.581,489.987 L848.581,489.987 C849.074,489.784 849.466,489.393 849.669,488.9 L849.669,488.9 L902.353,361.263 L898.657,361.267 L951.671,488.889 L951.671,488.889 C951.875,489.379 952.265,489.768 952.756,489.97 L952.756,489.97 L1079.741,542.349 L1079.734,538.654 L952.749,591.585 L952.749,591.585 C952.262,591.788 951.875,592.175 951.673,592.661 L951.673,592.661 L898.658,719.73 L902.351,719.733 L849.551,592.658 L849.551,592.658 C849.127,591.638 847.957,591.154 846.937,591.578 C845.917,592.002 845.434,593.172 845.857,594.192 L898.657,721.268 L898.657,721.268 C898.86,721.755 899.247,722.143 899.734,722.346 C900.753,722.771 901.924,722.29 902.35,721.27 L902.35,721.27 L955.364,594.201 L954.288,595.277 L1081.273,542.346 L1081.273,542.346 C1081.762,542.142 1082.151,541.753 1082.353,541.263 C1082.774,540.242 1082.288,539.073 1081.266,538.651 L1081.266,538.651 L954.281,486.272 L955.365,487.354 L902.351,359.733 L902.351,359.733 C902.147,359.243 901.757,358.854 901.267,358.652 C900.246,358.23 899.077,358.716 898.655,359.737 L898.655,359.737 L845.972,487.374 L847.06,486.287 L719.743,538.651 L719.743,538.651 C719.252,538.853 718.861,539.242 718.657,539.732 C718.233,540.752 718.716,541.922 719.736,542.347 L719.736,542.347 L846.936,595.272 C847.956,595.696 849.127,595.213 849.551,594.193 C849.975,593.174 849.492,592.003 848.473,591.578 L848.473,591.578" fill="#000000"/>
    </g>
    <g>
      <path d="M55.031,1028.985 L108.158,901.268 L108.158,901.268 C108.363,900.777 108.363,900.225 108.159,899.734 L108.159,899.734 L55.519,772.86 L52.909,775.475 L179.737,827.814 L179.737,827.814 C180.226,828.016 180.776,828.016 181.265,827.813 L181.265,827.813 L309.245,774.805 L306.633,772.188 L253.539,899.731 L253.539,899.731 C253.334,900.223 253.334,900.775 253.538,901.267 L253.538,901.267 L306.316,1028.453 L308.923,1025.836 L181.259,973.454 L181.259,973.454 C180.769,973.253 180.221,973.254 179.732,973.457 L179.732,973.457 L52.417,1026.37 L52.417,1026.37 C51.397,1026.794 50.914,1027.964 51.338,1028.984 C51.761,1030.004 52.932,1030.487 53.952,1030.063 L181.267,977.151 L179.74,977.154 L307.404,1029.537 L307.404,1029.537 C307.893,1029.738 308.442,1029.737 308.93,1029.534 C309.95,1029.111 310.434,1027.94 310.011,1026.92 L310.011,1026.92 L257.232,899.734 L257.231,901.269 L310.326,773.726 L310.326,773.726 C310.53,773.235 310.531,772.683 310.327,772.192 C309.905,771.171 308.735,770.687 307.714,771.109 L307.714,771.109 L179.734,824.118 L181.263,824.117 L54.435,771.778 L54.435,771.778 C53.945,771.575 53.395,771.576 52.906,771.779 C51.885,772.202 51.402,773.372 51.825,774.393 L51.825,774.393 L104.464,901.266 L104.465,899.732 L51.338,1027.448 C50.914,1028.468 51.396,1029.639 52.416,1030.063 C53.436,1030.487 54.607,1030.005 55.031,1028.985 L55.031,1028.985" fill="#000000"/>
      <path d="M54.433,771.777 L1.261,749.893 L1.261,749.893 C0.239,749.472 -0.929,749.959 -1.35,750.981 C-1.77,752.002 -1.283,753.171 -0.262,753.591 C-0.262,753.591 -0.262,753.591 -0.262,753.591 L52.911,775.476 C53.932,775.896 55.101,775.409 55.522,774.388 C55.942,773.366 55.455,772.197 54.433,771.777 L54.433,771.777" fill="#000000"/>
      <path d="M55.52,772.862 L33.566,719.736 L33.566,719.736 C33.145,718.715 31.975,718.23 30.954,718.652 C29.933,719.073 29.448,720.243 29.87,721.264 C29.87,721.264 29.87,721.264 29.87,721.264 L51.824,774.39 C52.246,775.411 53.415,775.897 54.436,775.475 C55.457,775.053 55.942,773.883 55.52,772.862 L55.52,772.862" fill="#000000"/>
      <path d="M310.328,773.722 L332.035,721.265 L332.035,721.265 C332.458,720.244 331.973,719.074 330.952,718.652 C329.931,718.23 328.762,718.715 328.339,719.735 C328.339,719.735 328.339,719.735 328.339,719.735 L306.632,772.192 C306.209,773.213 306.694,774.383 307.715,774.805 C308.736,775.227 309.905,774.742 310.328,773.722 L310.328,773.722" fill="#000000"/>
      <path d="M309.235,774.809 L361.255,753.594 L361.255,753.594 C362.278,753.177 362.769,752.01 362.352,750.987 C361.934,749.964 360.767,749.473 359.744,749.89 C359.744,749.89 359.744,749.89 359.744,749.89 L307.724,771.105 C306.702,771.522 306.211,772.69 306.628,773.712 C307.045,774.735 308.212,775.226 309.235,774.809 L309.235,774.809" fill="#000000"/>
      <path d="M307.382,1029.528 L359.719,1051.729 L359.719,1051.729 C360.735,1052.161 361.909,1051.686 362.341,1050.669 C362.772,1049.652 362.298,1048.478 361.281,1048.047 L308.944,1025.845 C308.944,1025.845 308.944,1025.845 308.944,1025.845 C307.928,1025.414 306.754,1025.889 306.322,1026.906 C305.891,1027.922 306.365,1029.096 307.382,1029.528 L307.382,1029.528" fill="#000000"/>
      <path d="M306.318,1028.456 L328.341,1081.27 L328.341,1081.27 C328.767,1082.289 329.938,1082.771 330.957,1082.346 C331.977,1081.921 332.458,1080.75 332.033,1079.73 C332.033,1079.73 332.033,1079.73 332.033,1079.73 L310.009,1026.917 C309.584,1025.897 308.413,1025.416 307.394,1025.841 C306.374,1026.266 305.892,1027.437 306.318,1028.456 L306.318,1028.456" fill="#000000"/>
      <path d="M51.334,1027.457 L29.868,1079.74 L29.868,1079.74 C29.448,1080.762 29.937,1081.931 30.958,1082.35 C31.98,1082.77 33.149,1082.281 33.568,1081.26 C33.568,1081.26 33.568,1081.26 33.568,1081.26 L55.035,1028.976 C55.454,1027.954 54.966,1026.786 53.944,1026.366 C52.922,1025.947 51.754,1026.435 51.334,1027.457 L51.334,1027.457" fill="#000000"/>
      <path d="M52.424,1026.367 L-0.261,1048.039 L-0.261,1048.039 C-1.283,1048.459 -1.77,1049.627 -1.35,1050.649 C-0.93,1051.671 0.239,1052.158 1.26,1051.738 C1.26,1051.738 1.26,1051.738 1.26,1051.738 L53.945,1030.066 C54.967,1029.646 55.454,1028.477 55.034,1027.456 C54.614,1026.434 53.445,1025.947 52.424,1026.367 L52.424,1026.367" fill="#000000"/>
      <path d="M128.468,951.578 L1.268,898.654 L1.26,902.35 L128.577,849.987 L128.577,849.987 C129.07,849.784 129.462,849.393 129.665,848.9 L129.665,848.9 L182.348,721.263 L178.653,721.267 L231.667,848.888 L231.667,848.888 C231.871,849.378 232.261,849.768 232.751,849.97 L232.751,849.97 L359.737,902.349 L359.73,898.654 L232.745,951.585 L232.745,951.585 C232.258,951.788 231.871,952.175 231.668,952.661 L231.668,952.661 L178.654,1079.73 L182.347,1079.733 L129.547,952.657 L129.547,952.657 C129.123,951.637 127.953,951.154 126.933,951.578 C125.913,952.002 125.429,953.172 125.853,954.192 L178.653,1081.267 L178.653,1081.267 C178.855,1081.755 179.242,1082.143 179.73,1082.346 C180.749,1082.771 181.92,1082.29 182.345,1081.27 L182.345,1081.27 L235.36,954.201 L234.284,955.277 L361.269,902.346 L361.269,902.346 C361.758,902.142 362.146,901.753 362.349,901.263 C362.77,900.242 362.283,899.072 361.262,898.651 L361.262,898.651 L234.277,846.272 L235.361,847.354 L182.347,719.733 L182.347,719.733 C182.143,719.243 181.753,718.854 181.263,718.651 C180.242,718.23 179.072,718.716 178.651,719.737 L178.651,719.737 L125.967,847.374 L127.055,846.287 L-0.261,898.65 L-0.261,898.65 C-0.752,898.852 -1.143,899.241 -1.347,899.732 C-1.771,900.752 -1.289,901.922 -0.269,902.347 L-0.269,902.347 L126.932,955.271 C127.952,955.696 129.122,955.213 129.547,954.193 C129.971,953.173 129.488,952.003 128.468,951.578 L128.468,951.578" fill="#000000"/>
    </g>
    <g>
      <path d="M415.035,1028.987 L468.163,901.27 L468.163,901.27 C468.367,900.779 468.367,900.227 468.163,899.736 L468.163,899.736 L415.524,772.862 L412.913,775.477 L539.741,827.816 L539.741,827.816 C540.23,828.018 540.78,828.018 541.269,827.815 L541.269,827.815 L669.249,774.807 L666.638,772.191 L613.543,899.734 L613.543,899.734 C613.338,900.225 613.338,900.777 613.542,901.269 L613.542,901.269 L666.32,1028.455 L668.927,1025.839 L541.263,973.456 L541.263,973.456 C540.774,973.255 540.225,973.257 539.736,973.46 L539.736,973.46 L412.421,1026.372 L412.421,1026.372 C411.401,1026.796 410.918,1027.966 411.342,1028.986 C411.766,1030.006 412.936,1030.49 413.956,1030.066 L541.271,977.153 L539.745,977.157 L667.409,1029.539 L667.409,1029.539 C667.898,1029.74 668.446,1029.739 668.934,1029.536 C669.954,1029.113 670.438,1027.943 670.015,1026.922 L670.015,1026.922 L617.237,899.736 L617.236,901.271 L670.33,773.728 L670.33,773.728 C670.535,773.237 670.535,772.685 670.332,772.194 C669.909,771.173 668.739,770.689 667.719,771.111 L667.719,771.111 L539.739,824.12 L541.267,824.119 L414.439,771.78 L414.439,771.78 C413.949,771.578 413.399,771.578 412.91,771.781 C411.89,772.204 411.406,773.375 411.829,774.395 L411.829,774.395 L464.469,901.269 L464.469,899.734 L411.342,1027.451 C410.918,1028.471 411.401,1029.641 412.421,1030.065 C413.44,1030.49 414.611,1030.007 415.035,1028.987 L415.035,1028.987" fill="#F0F0F0"/>
      <path d="M414.438,771.779 L361.265,749.895 L361.265,749.895 C360.244,749.474 359.075,749.962 358.654,750.983 C358.234,752.005 358.721,753.173 359.743,753.594 C359.743,753.594 359.743,753.594 359.743,753.594 L412.915,775.478 C413.937,775.898 415.106,775.411 415.526,774.39 C415.946,773.368 415.459,772.199 414.438,771.779 L414.438,771.779" fill="#F0F0F0"/>
      <path d="M415.525,772.865 L393.571,719.738 L393.571,719.738 C393.149,718.718 391.979,718.232 390.958,718.654 C389.938,719.076 389.452,720.245 389.874,721.266 C389.874,721.266 389.874,721.266 389.874,721.266 L411.828,774.392 C412.25,775.413 413.419,775.899 414.44,775.477 C415.461,775.055 415.947,773.886 415.525,772.865 L415.525,772.865" fill="#F0F0F0"/>
      <path d="M670.332,773.724 L692.04,721.267 L692.04,721.267 C692.462,720.246 691.977,719.077 690.956,718.654 C689.936,718.232 688.766,718.717 688.344,719.738 C688.344,719.738 688.344,719.738 688.344,719.738 L666.636,772.195 C666.214,773.215 666.698,774.385 667.719,774.807 C668.74,775.23 669.91,774.745 670.332,773.724 L670.332,773.724" fill="#F0F0F0"/>
      <path d="M669.239,774.811 L721.259,753.596 L721.259,753.596 C722.282,753.179 722.773,752.012 722.356,750.989 C721.939,749.966 720.771,749.475 719.749,749.892 C719.749,749.892 719.749,749.892 719.749,749.892 L667.729,771.107 C666.706,771.525 666.215,772.692 666.632,773.715 C667.049,774.737 668.216,775.228 669.239,774.811 L669.239,774.811" fill="#F0F0F0"/>
      <path d="M667.387,1029.53 L719.723,1051.732 L719.723,1051.732 C720.74,1052.163 721.914,1051.688 722.345,1050.672 C722.776,1049.655 722.302,1048.481 721.285,1048.049 L668.949,1025.848 C668.949,1025.848 668.949,1025.848 668.949,1025.848 C667.932,1025.416 666.758,1025.891 666.326,1026.908 C665.895,1027.925 666.37,1029.099 667.387,1029.53 L667.387,1029.53" fill="#F0F0F0"/>
      <path d="M666.322,1028.459 L688.346,1081.272 L688.346,1081.272 C688.771,1082.292 689.942,1082.773 690.961,1082.348 C691.981,1081.923 692.463,1080.752 692.038,1079.733 C692.038,1079.733 692.038,1079.733 692.038,1079.733 L670.014,1026.919 C669.589,1025.9 668.417,1025.418 667.398,1025.843 C666.378,1026.268 665.897,1027.439 666.322,1028.459 L666.322,1028.459" fill="#F0F0F0"/>
      <path d="M411.339,1027.459 L389.872,1079.743 L389.872,1079.743 C389.453,1080.765 389.941,1081.933 390.963,1082.352 C391.984,1082.772 393.153,1082.284 393.572,1081.262 C393.572,1081.262 393.572,1081.262 393.572,1081.262 L415.039,1028.978 C415.458,1027.957 414.97,1026.788 413.948,1026.369 C412.927,1025.949 411.758,1026.437 411.339,1027.459 L411.339,1027.459" fill="#F0F0F0"/>
      <path d="M412.428,1026.369 L359.743,1048.041 L359.743,1048.041 C358.722,1048.461 358.234,1049.63 358.654,1050.651 C359.074,1051.673 360.243,1052.16 361.265,1051.74 C361.265,1051.74 361.265,1051.74 361.265,1051.74 L413.95,1030.068 C414.971,1029.648 415.459,1028.479 415.038,1027.458 C414.618,1026.436 413.449,1025.949 412.428,1026.369 L412.428,1026.369" fill="#F0F0F0"/>
      <path d="M488.473,951.581 L361.272,898.656 L361.265,902.352 L488.581,849.989 L488.581,849.989 C489.074,849.786 489.466,849.395 489.669,848.902 L489.669,848.902 L542.353,721.265 L538.657,721.27 L591.671,848.891 L591.671,848.891 C591.875,849.381 592.265,849.77 592.756,849.972 L592.756,849.972 L719.741,902.351 L719.734,898.656 L592.749,951.587 L592.749,951.587 C592.262,951.79 591.875,952.177 591.673,952.663 L591.673,952.663 L538.658,1079.732 L542.351,1079.735 L489.551,952.66 L489.551,952.66 C489.127,951.64 487.957,951.156 486.937,951.58 C485.917,952.004 485.434,953.174 485.857,954.194 L538.657,1081.27 L538.657,1081.27 C538.86,1081.757 539.247,1082.145 539.734,1082.348 C540.753,1082.773 541.924,1082.292 542.35,1081.272 L542.35,1081.272 L595.364,954.204 L594.288,955.279 L721.273,902.348 L721.273,902.348 C721.763,902.144 722.151,901.755 722.353,901.265 C722.774,900.244 722.288,899.075 721.267,898.653 L721.267,898.653 L594.281,846.274 L595.365,847.356 L542.351,719.735 L542.351,719.735 C542.147,719.245 541.757,718.856 541.267,718.654 C540.246,718.232 539.077,718.718 538.655,719.739 L538.655,719.739 L485.972,847.376 L487.06,846.29 L359.743,898.653 L359.743,898.653 C359.252,898.855 358.861,899.244 358.657,899.734 C358.233,900.754 358.716,901.924 359.736,902.349 L359.736,902.349 L486.936,955.274 C487.956,955.698 489.127,955.215 489.551,954.195 C489.975,953.176 489.492,952.005 488.473,951.581 L488.473,951.581" fill="#F0F0F0"/>
    </g>
    <g>
      <path d="M775.029,1028.983 L828.157,901.267 L828.157,901.267 C828.361,900.776 828.361,900.224 828.157,899.732 L828.157,899.732 L775.518,772.858 L772.908,775.474 L899.735,827.813 L899.735,827.813 C900.225,828.015 900.774,828.014 901.263,827.812 L901.263,827.812 L1029.243,774.803 L1026.632,772.187 L973.537,899.73 L973.537,899.73 C973.333,900.221 973.332,900.774 973.536,901.265 L973.536,901.265 L1026.315,1028.452 L1028.921,1025.835 L901.257,973.452 L901.257,973.452 C900.768,973.252 900.219,973.253 899.731,973.456 L899.731,973.456 L772.415,1026.368 L772.415,1026.368 C771.395,1026.792 770.912,1027.963 771.336,1028.983 C771.76,1030.003 772.93,1030.486 773.95,1030.062 L901.266,977.15 L899.739,977.153 L1027.403,1029.536 L1027.403,1029.536 C1027.892,1029.736 1028.44,1029.735 1028.928,1029.532 C1029.949,1029.109 1030.432,1027.939 1030.009,1026.919 L1030.009,1026.919 L977.231,899.732 L977.23,901.267 L1030.324,773.724 L1030.324,773.724 C1030.529,773.233 1030.529,772.681 1030.326,772.19 C1029.903,771.17 1028.733,770.685 1027.713,771.108 L1027.713,771.108 L899.733,824.116 L901.261,824.115 L774.434,771.776 L774.434,771.776 C773.944,771.574 773.394,771.574 772.904,771.778 C771.884,772.201 771.4,773.371 771.823,774.391 L771.823,774.391 L824.463,901.265 L824.464,899.731 L771.336,1027.447 C770.912,1028.467 771.395,1029.638 772.415,1030.062 C773.435,1030.486 774.605,1030.003 775.029,1028.983 L775.029,1028.983" fill="#000000"/>
      <path d="M774.432,771.775 L721.259,749.891 L721.259,749.891 C720.238,749.471 719.069,749.958 718.649,750.979 C718.228,752.001 718.716,753.17 719.737,753.59 C719.737,753.59 719.737,753.59 719.737,753.59 L772.909,775.474 C773.931,775.895 775.1,775.408 775.52,774.386 C775.94,773.365 775.453,772.196 774.432,771.775 L774.432,771.775" fill="#000000"/>
      <path d="M775.519,772.861 L753.565,719.735 L753.565,719.735 C753.143,718.714 751.974,718.228 750.953,718.65 C749.932,719.072 749.446,720.242 749.868,721.262 C749.868,721.262 749.868,721.262 749.868,721.262 L771.822,774.389 C772.244,775.41 773.414,775.895 774.434,775.473 C775.455,775.051 775.941,773.882 775.519,772.861 L775.519,772.861" fill="#000000"/>
      <path d="M1030.326,773.72 L1052.034,721.263 L1052.034,721.263 C1052.456,720.243 1051.971,719.073 1050.951,718.651 C1049.93,718.228 1048.76,718.713 1048.338,719.734 C1048.338,719.734 1048.338,719.734 1048.338,719.734 L1026.63,772.191 C1026.208,773.212 1026.693,774.381 1027.713,774.804 C1028.734,775.226 1029.904,774.741 1030.326,773.72 L1030.326,773.72" fill="#000000"/>
      <path d="M1029.233,774.808 L1081.253,753.593 L1081.253,753.593 C1082.276,753.175 1082.767,752.008 1082.35,750.985 C1081.933,749.963 1080.766,749.472 1079.743,749.889 C1079.743,749.889 1079.743,749.889 1079.743,749.889 L1027.723,771.104 C1026.7,771.521 1026.209,772.688 1026.626,773.711 C1027.043,774.734 1028.211,775.225 1029.233,774.808 L1029.233,774.808" fill="#000000"/>
      <path d="M1027.381,1029.526 L1079.717,1051.728 L1079.717,1051.728 C1080.734,1052.159 1081.908,1051.685 1082.339,1050.668 C1082.771,1049.651 1082.296,1048.477 1081.279,1048.046 L1028.943,1025.844 C1028.943,1025.844 1028.943,1025.844 1028.943,1025.844 C1027.926,1025.413 1026.752,1025.887 1026.321,1026.904 C1025.889,1027.921 1026.364,1029.095 1027.381,1029.526 L1027.381,1029.526" fill="#000000"/>
      <path d="M1026.316,1028.455 L1048.34,1081.268 L1048.34,1081.268 C1048.765,1082.288 1049.936,1082.77 1050.956,1082.345 C1051.975,1081.919 1052.457,1080.748 1052.032,1079.729 C1052.032,1079.729 1052.032,1079.729 1052.032,1079.729 L1030.008,1026.916 C1029.583,1025.896 1028.412,1025.414 1027.392,1025.839 C1026.373,1026.264 1025.891,1027.436 1026.316,1028.455 L1026.316,1028.455" fill="#000000"/>
      <path d="M771.333,1027.455 L749.866,1079.739 L749.866,1079.739 C749.447,1080.761 749.935,1081.929 750.957,1082.349 C751.979,1082.768 753.147,1082.28 753.567,1081.258 C753.567,1081.258 753.567,1081.258 753.567,1081.258 L775.033,1028.975 C775.453,1027.953 774.964,1026.785 773.943,1026.365 C772.921,1025.945 771.752,1026.434 771.333,1027.455 L771.333,1027.455" fill="#000000"/>
      <path d="M772.422,1026.365 L719.737,1048.037 L719.737,1048.037 C718.716,1048.457 718.228,1049.626 718.648,1050.648 C719.069,1051.669 720.237,1052.157 721.259,1051.736 C721.259,1051.736 721.259,1051.736 721.259,1051.736 L773.944,1030.065 C774.965,1029.645 775.453,1028.476 775.033,1027.454 C774.612,1026.433 773.444,1025.945 772.422,1026.365 L772.422,1026.365" fill="#000000"/>
      <path d="M848.467,951.577 L721.266,898.652 L721.259,902.348 L848.575,849.985 L848.575,849.985 C849.068,849.782 849.46,849.391 849.663,848.899 L849.663,848.899 L902.347,721.262 L898.651,721.266 L951.666,848.887 L951.666,848.887 C951.869,849.377 952.259,849.766 952.75,849.969 L952.75,849.969 L1079.735,902.348 L1079.729,898.653 L952.743,951.584 L952.743,951.584 C952.257,951.787 951.87,952.173 951.667,952.66 L951.667,952.66 L898.652,1079.729 L902.345,1079.731 L849.545,952.656 L849.545,952.656 C849.122,951.636 847.951,951.153 846.931,951.577 C845.911,952 845.428,953.171 845.852,954.191 L898.651,1081.266 L898.651,1081.266 C898.854,1081.754 899.241,1082.141 899.728,1082.344 C900.747,1082.77 901.919,1082.288 902.344,1081.269 L902.344,1081.269 L955.358,954.2 L954.282,955.276 L1081.268,902.345 L1081.268,902.345 C1081.757,902.141 1082.145,901.751 1082.347,901.261 C1082.768,900.24 1082.282,899.071 1081.261,898.65 L1081.261,898.65 L954.275,846.271 L955.36,847.352 L902.345,719.731 L902.345,719.731 C902.142,719.241 901.752,718.852 901.261,718.65 C900.24,718.229 899.071,718.715 898.649,719.736 L898.649,719.736 L845.966,847.372 L847.054,846.286 L719.737,898.649 L719.737,898.649 C719.246,898.851 718.856,899.24 718.652,899.73 C718.227,900.75 718.71,901.921 719.73,902.345 L719.73,902.345 L846.93,955.27 C847.95,955.694 849.121,955.212 849.545,954.192 C849.969,953.172 849.487,952.001 848.467,951.577 L848.467,951.577" fill="#000000"/>
    </g>
    <path d="M0.5,0.5 L360.5,0.5 L360.5,360.5 L0.5,360.5 z" fill-opacity="0" stroke="#F0F0F0" stroke-width="2"/>
    <path d="M360.504,0.5 L720.504,0.5 L720.504,360.5 L360.504,360.5 z" fill-opacity="0" stroke="#F0F0F0" stroke-width="2"/>
    <path d="M720.504,0.5 L1080.504,0.5 L1080.504,360.5 L720.504,360.5 z" fill-opacity="0" stroke="#F0F0F0" stroke-width="2"/>
    <path d="M0.505,360.502 L360.504,360.502 L360.504,720.502 L0.505,720.502 z" fill-opacity="0" stroke="#F0F0F0" stroke-width="2"/>
    <path d="M360.498,360.498 L720.498,360.498 L720.498,720.499 L360.498,720.499 z" fill-opacity="0" stroke="#F0F0F0" stroke-width="2"/>
    <path d="M720.498,360.498 L1080.498,360.498 L1080.498,720.499 L720.498,720.499 z" fill-opacity="0" stroke="#F0F0F0" stroke-width="2"/>
    <path d="M0.505,720.502 L360.504,720.502 L360.504,1080.502 L0.505,1080.502 z" fill-opacity="0" stroke="#F0F0F0" stroke-width="2"/>
    <path d="M720.504,720.499 L1080.504,720.499 L1080.504,1080.499 L720.504,1080.499 z" fill-opacity="0" stroke="#F0F0F0" stroke-width="2"/>
    <path d="M360.498,720.502 L720.498,720.502 L720.498,1080.502 L360.498,1080.502 z" fill-opacity="0" stroke="#F0F0F0" stroke-width="2"/>
    <g>
      <path d="M415.029,1028.983 L468.157,901.267 L468.157,901.267 C468.361,900.776 468.361,900.223 468.157,899.732 L468.157,899.732 L415.518,772.858 L412.908,775.474 L539.735,827.813 L539.735,827.813 C540.225,828.015 540.774,828.014 541.263,827.812 L541.263,827.812 L669.243,774.803 L666.632,772.187 L613.537,899.73 L613.537,899.73 C613.333,900.221 613.332,900.774 613.536,901.265 L613.536,901.265 L666.315,1028.452 L668.921,1025.835 L541.257,973.452 L541.257,973.452 C540.768,973.252 540.219,973.253 539.731,973.456 L539.731,973.456 L412.415,1026.368 L412.415,1026.368 C411.395,1026.792 410.912,1027.963 411.336,1028.983 C411.76,1030.003 412.93,1030.486 413.95,1030.062 L541.266,977.15 L539.739,977.153 L667.403,1029.536 L667.403,1029.536 C667.892,1029.736 668.44,1029.735 668.928,1029.532 C669.949,1029.109 670.432,1027.939 670.009,1026.919 L670.009,1026.919 L617.231,899.732 L617.23,901.267 L670.324,773.724 L670.324,773.724 C670.529,773.233 670.529,772.681 670.326,772.19 C669.903,771.17 668.733,770.685 667.713,771.108 L667.713,771.108 L539.733,824.116 L541.261,824.115 L414.433,771.776 L414.433,771.776 C413.944,771.574 413.394,771.574 412.904,771.777 C411.884,772.201 411.4,773.371 411.823,774.391 L411.823,774.391 L464.463,901.265 L464.463,899.73 L411.336,1027.447 C410.912,1028.467 411.395,1029.637 412.415,1030.062 C413.435,1030.486 414.605,1030.003 415.029,1028.983 L415.029,1028.983" fill="#000000"/>
      <path d="M414.432,771.775 L361.259,749.891 L361.259,749.891 C360.238,749.471 359.069,749.958 358.649,750.979 C358.228,752.001 358.715,753.17 359.737,753.59 C359.737,753.59 359.737,753.59 359.737,753.59 L412.909,775.474 C413.931,775.895 415.1,775.407 415.52,774.386 C415.94,773.365 415.453,772.196 414.432,771.775 L414.432,771.775" fill="#000000"/>
      <path d="M415.519,772.861 L393.565,719.735 L393.565,719.735 C393.143,718.714 391.973,718.228 390.953,718.65 C389.932,719.072 389.446,720.242 389.868,721.262 C389.868,721.262 389.868,721.262 389.868,721.262 L411.822,774.389 C412.244,775.409 413.414,775.895 414.434,775.473 C415.455,775.051 415.941,773.882 415.519,772.861 L415.519,772.861" fill="#000000"/>
      <path d="M670.326,773.72 L692.034,721.263 L692.034,721.263 C692.456,720.243 691.971,719.073 690.951,718.651 C689.93,718.228 688.76,718.713 688.338,719.734 C688.338,719.734 688.338,719.734 688.338,719.734 L666.63,772.191 C666.208,773.211 666.693,774.381 667.713,774.804 C668.734,775.226 669.904,774.741 670.326,773.72 L670.326,773.72" fill="#000000"/>
      <path d="M669.233,774.807 L721.253,753.592 L721.253,753.592 C722.276,753.175 722.767,752.008 722.35,750.985 C721.933,749.963 720.766,749.472 719.743,749.889 C719.743,749.889 719.743,749.889 719.743,749.889 L667.723,771.104 C666.7,771.521 666.209,772.688 666.626,773.711 C667.043,774.734 668.211,775.225 669.233,774.807 L669.233,774.807" fill="#000000"/>
      <path d="M667.381,1029.526 L719.717,1051.728 L719.717,1051.728 C720.734,1052.159 721.908,1051.685 722.339,1050.668 C722.771,1049.651 722.296,1048.477 721.279,1048.046 L668.943,1025.844 C668.943,1025.844 668.943,1025.844 668.943,1025.844 C667.926,1025.413 666.752,1025.887 666.321,1026.904 C665.889,1027.921 666.364,1029.095 667.381,1029.526 L667.381,1029.526" fill="#000000"/>
      <path d="M666.316,1028.455 L688.34,1081.268 L688.34,1081.268 C688.765,1082.288 689.936,1082.77 690.956,1082.345 C691.975,1081.919 692.457,1080.748 692.032,1079.729 C692.032,1079.729 692.032,1079.729 692.032,1079.729 L670.008,1026.915 C669.583,1025.896 668.412,1025.414 667.392,1025.839 C666.373,1026.264 665.891,1027.435 666.316,1028.455 L666.316,1028.455" fill="#000000"/>
      <path d="M411.333,1027.455 L389.866,1079.739 L389.866,1079.739 C389.447,1080.761 389.935,1081.929 390.957,1082.349 C391.979,1082.768 393.147,1082.28 393.567,1081.258 C393.567,1081.258 393.567,1081.258 393.567,1081.258 L415.033,1028.975 C415.452,1027.953 414.964,1026.784 413.942,1026.365 C412.921,1025.945 411.752,1026.434 411.333,1027.455 L411.333,1027.455" fill="#000000"/>
      <path d="M412.422,1026.365 L359.737,1048.037 L359.737,1048.037 C358.716,1048.457 358.228,1049.626 358.648,1050.648 C359.069,1051.669 360.237,1052.156 361.259,1051.736 C361.259,1051.736 361.259,1051.736 361.259,1051.736 L413.944,1030.065 C414.965,1029.644 415.453,1028.476 415.032,1027.454 C414.612,1026.433 413.444,1025.945 412.422,1026.365 L412.422,1026.365" fill="#000000"/>
      <path d="M488.467,951.577 L361.266,898.652 L361.259,902.348 L488.575,849.985 L488.575,849.985 C489.068,849.782 489.46,849.391 489.663,848.899 L489.663,848.899 L542.347,721.262 L538.651,721.266 L591.666,848.887 L591.666,848.887 C591.869,849.377 592.259,849.766 592.75,849.969 L592.75,849.969 L719.735,902.347 L719.729,898.653 L592.743,951.584 L592.743,951.584 C592.256,951.786 591.87,952.173 591.667,952.66 L591.667,952.66 L538.652,1079.729 L542.345,1079.731 L489.545,952.656 L489.545,952.656 C489.122,951.636 487.951,951.153 486.931,951.576 C485.911,952 485.428,953.171 485.852,954.191 L538.651,1081.266 L538.651,1081.266 C538.854,1081.753 539.241,1082.141 539.728,1082.344 C540.747,1082.77 541.919,1082.288 542.344,1081.269 L542.344,1081.269 L595.358,954.2 L594.282,955.276 L721.268,902.345 L721.268,902.345 C721.757,902.141 722.145,901.751 722.347,901.261 C722.768,900.24 722.282,899.071 721.261,898.65 L721.261,898.65 L594.275,846.271 L595.359,847.352 L542.345,719.731 L542.345,719.731 C542.141,719.241 541.752,718.852 541.261,718.65 C540.24,718.228 539.071,718.714 538.649,719.735 L538.649,719.735 L485.966,847.372 L487.054,846.286 L359.737,898.649 L359.737,898.649 C359.246,898.851 358.855,899.24 358.651,899.73 C358.227,900.75 358.71,901.921 359.73,902.345 L359.73,902.345 L486.93,955.27 C487.95,955.694 489.121,955.211 489.545,954.192 C489.969,953.172 489.487,952.001 488.467,951.577 L488.467,951.577" fill="#000000"/>
    </g>
  </g>
</svg>
