<?xml version="1.0" encoding="UTF-8"?>
<!DOCTYPE svg PUBLIC "-//W3C//DTD SVG 1.1//EN" "http://www.w3.org/Graphics/SVG/1.1/DTD/svg11.dtd">
<svg version="1.1" xmlns="http://www.w3.org/2000/svg" xmlns:xlink="http://www.w3.org/1999/xlink" x="0" y="0" width="920" height="970" viewBox="0, 0, 920, 970">
  <g id="Layer_1">
    <g>
      <path d="M0.5,0.5 L922.734,0.5 L922.734,973.058 L0.5,973.058 z" fill="#EBE0D4"/>
      <path d="M0.5,0.5 L922.734,0.5 L922.734,973.058 L0.5,973.058 z" fill-opacity="0" stroke="#FFFFFF" stroke-width="0.5"/>
    </g>
    <g>
      <path d="M34.264,207.537 L34.264,156.082 L0.5,121.779 L34.264,87.476 L34.264,36.022 L83.173,36.022 L115.779,0.5 L148.385,36.022 L197.294,36.022 L197.294,87.476 L231.058,121.779 L197.294,156.082 L197.294,207.537 L148.385,207.537 L115.779,243.058 L83.173,207.537 z" fill="#1D234C"/>
      <path d="M34.264,207.537 L34.264,156.082 L0.5,121.779 L34.264,87.476 L34.264,36.022 L83.173,36.022 L115.779,0.5 L148.385,36.022 L197.294,36.022 L197.294,87.476 L231.058,121.779 L197.294,156.082 L197.294,207.537 L148.385,207.537 L115.779,243.058 L83.173,207.537 z" fill-opacity="0" stroke="#FFFFFF" stroke-width="0.5"/>
    </g>
    <g>
      <path d="M34.264,450.095 L34.264,398.641 L0.5,364.338 L34.264,330.035 L34.264,278.58 L83.173,278.58 L115.779,243.058 L148.385,278.58 L197.294,278.58 L197.294,330.035 L231.058,364.338 L197.294,398.641 L197.294,450.095 L148.385,450.095 L115.779,485.617 L83.173,450.095 z" fill="#437FD0"/>
      <path d="M34.264,450.095 L34.264,398.641 L0.5,364.338 L34.264,330.035 L34.264,278.58 L83.173,278.58 L115.779,243.058 L148.385,278.58 L197.294,278.58 L197.294,330.035 L231.058,364.338 L197.294,398.641 L197.294,450.095 L148.385,450.095 L115.779,485.617 L83.173,450.095 z" fill-opacity="0" stroke="#FFFFFF" stroke-width="0.5"/>
    </g>
    <g>
      <path d="M34.264,450.095 L34.264,398.641 L0.5,364.338 L34.264,330.035 L34.264,278.58 L83.173,278.58 L115.779,243.058 L148.385,278.58 L197.294,278.58 L197.294,330.035 L231.058,364.338 L197.294,398.641 L197.294,450.095 L148.385,450.095 L115.779,485.617 L83.173,450.095 z" fill="#437FD0"/>
      <path d="M34.264,450.095 L34.264,398.641 L0.5,364.338 L34.264,330.035 L34.264,278.58 L83.173,278.58 L115.779,243.058 L148.385,278.58 L197.294,278.58 L197.294,330.035 L231.058,364.338 L197.294,398.641 L197.294,450.095 L148.385,450.095 L115.779,485.617 L83.173,450.095 z" fill-opacity="0" stroke="#FFFFFF" stroke-width="0.5"/>
    </g>
    <g>
      <path d="M34.264,450.095 L34.264,398.641 L0.5,364.338 L34.264,330.035 L34.264,278.58 L83.173,278.58 L115.779,243.058 L148.385,278.58 L197.294,278.58 L197.294,330.035 L231.058,364.338 L197.294,398.641 L197.294,450.095 L148.385,450.095 L115.779,485.617 L83.173,450.095 z" fill="#437FD0"/>
      <path d="M34.264,450.095 L34.264,398.641 L0.5,364.338 L34.264,330.035 L34.264,278.58 L83.173,278.58 L115.779,243.058 L148.385,278.58 L197.294,278.58 L197.294,330.035 L231.058,364.338 L197.294,398.641 L197.294,450.095 L148.385,450.095 L115.779,485.617 L83.173,450.095 z" fill-opacity="0" stroke="#FFFFFF" stroke-width="0.5"/>
    </g>
    <g>
      <path d="M34.264,450.095 L34.264,398.641 L0.5,364.338 L34.264,330.035 L34.264,278.58 L83.173,278.58 L115.779,243.058 L148.385,278.58 L197.294,278.58 L197.294,330.035 L231.058,364.338 L197.294,398.641 L197.294,450.095 L148.385,450.095 L115.779,485.617 L83.173,450.095 z" fill="#437FD0"/>
      <path d="M34.264,450.095 L34.264,398.641 L0.5,364.338 L34.264,330.035 L34.264,278.58 L83.173,278.58 L115.779,243.058 L148.385,278.58 L197.294,278.58 L197.294,330.035 L231.058,364.338 L197.294,398.641 L197.294,450.095 L148.385,450.095 L115.779,485.617 L83.173,450.095 z" fill-opacity="0" stroke="#FFFFFF" stroke-width="0.5"/>
    </g>
    <g>
      <path d="M34.264,450.095 L34.264,398.641 L0.5,364.338 L34.264,330.035 L34.264,278.58 L83.173,278.58 L115.779,243.058 L148.385,278.58 L197.294,278.58 L197.294,330.035 L231.058,364.338 L197.294,398.641 L197.294,450.095 L148.385,450.095 L115.779,485.617 L83.173,450.095 z" fill="#989A8B"/>
      <path d="M34.264,450.095 L34.264,398.641 L0.5,364.338 L34.264,330.035 L34.264,278.58 L83.173,278.58 L115.779,243.058 L148.385,278.58 L197.294,278.58 L197.294,330.035 L231.058,364.338 L197.294,398.641 L197.294,450.095 L148.385,450.095 L115.779,485.617 L83.173,450.095 z" fill-opacity="0" stroke="#FFFFFF" stroke-width="0.5"/>
    </g>
    <g>
      <path d="M34.264,692.653 L34.264,641.199 L0.5,606.896 L34.264,572.593 L34.264,521.139 L83.173,521.139 L115.779,485.617 L148.385,521.139 L197.294,521.139 L197.294,572.593 L231.058,606.896 L197.294,641.199 L197.294,692.653 L148.385,692.653 L115.779,728.175 L83.173,692.653 z" fill="#989A8B"/>
      <path d="M34.264,692.653 L34.264,641.199 L0.5,606.896 L34.264,572.593 L34.264,521.139 L83.173,521.139 L115.779,485.617 L148.385,521.139 L197.294,521.139 L197.294,572.593 L231.058,606.896 L197.294,641.199 L197.294,692.653 L148.385,692.653 L115.779,728.175 L83.173,692.653 z" fill-opacity="0" stroke="#FFFFFF" stroke-width="0.5"/>
    </g>
    <g>
      <path d="M264.823,207.537 L264.823,156.082 L231.058,121.779 L264.823,87.476 L264.823,36.022 L313.732,36.022 L346.338,0.5 L378.943,36.022 L427.852,36.022 L427.852,87.476 L461.617,121.779 L427.852,156.082 L427.852,207.537 L378.943,207.537 L346.338,243.058 L313.732,207.537 z" fill="#989A8B"/>
      <path d="M264.823,207.537 L264.823,156.082 L231.058,121.779 L264.823,87.476 L264.823,36.022 L313.732,36.022 L346.338,0.5 L378.943,36.022 L427.852,36.022 L427.852,87.476 L461.617,121.779 L427.852,156.082 L427.852,207.537 L378.943,207.537 L346.338,243.058 L313.732,207.537 z" fill-opacity="0" stroke="#FFFFFF" stroke-width="0.5"/>
    </g>
    <g>
      <path d="M264.823,450.095 L264.823,398.641 L231.058,364.338 L264.823,330.035 L264.823,278.58 L313.732,278.58 L346.338,243.058 L378.943,278.58 L427.852,278.58 L427.852,330.035 L461.617,364.338 L427.852,398.641 L427.852,450.095 L378.943,450.095 L346.338,485.617 L313.732,450.095 z" fill="#1D234C"/>
      <path d="M264.823,450.095 L264.823,398.641 L231.058,364.338 L264.823,330.035 L264.823,278.58 L313.732,278.58 L346.338,243.058 L378.943,278.58 L427.852,278.58 L427.852,330.035 L461.617,364.338 L427.852,398.641 L427.852,450.095 L378.943,450.095 L346.338,485.617 L313.732,450.095 z" fill-opacity="0" stroke="#FFFFFF" stroke-width="0.5"/>
    </g>
    <g>
      <path d="M264.823,692.653 L264.823,641.199 L231.058,606.896 L264.823,572.593 L264.823,521.139 L313.732,521.139 L346.338,485.617 L378.943,521.139 L427.852,521.139 L427.852,572.593 L461.617,606.896 L427.852,641.199 L427.852,692.653 L378.943,692.653 L346.338,728.175 L313.732,692.653 z" fill="#1D234C"/>
      <path d="M264.823,692.653 L264.823,641.199 L231.058,606.896 L264.823,572.593 L264.823,521.139 L313.732,521.139 L346.338,485.617 L378.943,521.139 L427.852,521.139 L427.852,572.593 L461.617,606.896 L427.852,641.199 L427.852,692.653 L378.943,692.653 L346.338,728.175 L313.732,692.653 z" fill-opacity="0" stroke="#FFFFFF" stroke-width="0.5"/>
    </g>
    <g>
      <path d="M495.381,207.537 L495.381,156.082 L461.617,121.779 L495.381,87.476 L495.381,36.022 L544.29,36.022 L576.896,0.5 L609.502,36.022 L658.411,36.022 L658.411,87.476 L692.175,121.779 L658.411,156.082 L658.411,207.537 L609.502,207.537 L576.896,243.058 L544.29,207.537 z" fill="#989A8B"/>
      <path d="M495.381,207.537 L495.381,156.082 L461.617,121.779 L495.381,87.476 L495.381,36.022 L544.29,36.022 L576.896,0.5 L609.502,36.022 L658.411,36.022 L658.411,87.476 L692.175,121.779 L658.411,156.082 L658.411,207.537 L609.502,207.537 L576.896,243.058 L544.29,207.537 z" fill-opacity="0" stroke="#FFFFFF" stroke-width="0.5"/>
    </g>
    <g>
      <path d="M495.381,450.095 L495.381,398.641 L461.617,364.338 L495.381,330.035 L495.381,278.58 L544.29,278.58 L576.896,243.058 L609.502,278.58 L658.411,278.58 L658.411,330.035 L692.175,364.338 L658.411,398.641 L658.411,450.095 L609.502,450.095 L576.896,485.617 L544.29,450.095 z" fill="#1D234C"/>
      <path d="M495.381,450.095 L495.381,398.641 L461.617,364.338 L495.381,330.035 L495.381,278.58 L544.29,278.58 L576.896,243.058 L609.502,278.58 L658.411,278.58 L658.411,330.035 L692.175,364.338 L658.411,398.641 L658.411,450.095 L609.502,450.095 L576.896,485.617 L544.29,450.095 z" fill-opacity="0" stroke="#FFFFFF" stroke-width="0.5"/>
    </g>
    <g>
      <path d="M495.381,692.653 L495.381,641.199 L461.617,606.896 L495.381,572.593 L495.381,521.139 L544.29,521.139 L576.896,485.617 L609.502,521.139 L658.411,521.139 L658.411,572.593 L692.175,606.896 L658.411,641.199 L658.411,692.653 L609.502,692.653 L576.896,728.175 L544.29,692.653 z" fill="#1D234C"/>
      <path d="M495.381,692.653 L495.381,641.199 L461.617,606.896 L495.381,572.593 L495.381,521.139 L544.29,521.139 L576.896,485.617 L609.502,521.139 L658.411,521.139 L658.411,572.593 L692.175,606.896 L658.411,641.199 L658.411,692.653 L609.502,692.653 L576.896,728.175 L544.29,692.653 z" fill-opacity="0" stroke="#FFFFFF" stroke-width="0.5"/>
    </g>
    <g>
      <path d="M725.94,207.537 L725.94,156.082 L692.175,121.779 L725.94,87.476 L725.94,36.022 L774.849,36.022 L807.454,0.5 L840.06,36.022 L888.969,36.022 L888.969,87.476 L922.734,121.779 L888.969,156.082 L888.969,207.537 L840.06,207.537 L807.454,243.058 L774.849,207.537 z" fill="#1D234C"/>
      <path d="M725.94,207.537 L725.94,156.082 L692.175,121.779 L725.94,87.476 L725.94,36.022 L774.849,36.022 L807.454,0.5 L840.06,36.022 L888.969,36.022 L888.969,87.476 L922.734,121.779 L888.969,156.082 L888.969,207.537 L840.06,207.537 L807.454,243.058 L774.849,207.537 z" fill-opacity="0" stroke="#FFFFFF" stroke-width="0.5"/>
    </g>
    <g>
      <path d="M725.94,450.095 L725.94,398.641 L692.175,364.338 L725.94,330.035 L725.94,278.58 L774.849,278.58 L807.454,243.058 L840.06,278.58 L888.969,278.58 L888.969,330.035 L922.734,364.338 L888.969,398.641 L888.969,450.095 L840.06,450.095 L807.454,485.617 L774.849,450.095 z" fill="#989A8B"/>
      <path d="M725.94,450.095 L725.94,398.641 L692.175,364.338 L725.94,330.035 L725.94,278.58 L774.849,278.58 L807.454,243.058 L840.06,278.58 L888.969,278.58 L888.969,330.035 L922.734,364.338 L888.969,398.641 L888.969,450.095 L840.06,450.095 L807.454,485.617 L774.849,450.095 z" fill-opacity="0" stroke="#FFFFFF" stroke-width="0.5"/>
    </g>
    <g>
      <path d="M725.94,694.978 L725.94,643.524 L692.175,609.221 L725.94,574.918 L725.94,523.463 L774.849,523.463 L807.454,487.942 L840.06,523.463 L888.969,523.463 L888.969,574.918 L922.734,609.221 L888.969,643.524 L888.969,694.978 L840.06,694.978 L807.454,730.5 L774.849,694.978 z" fill="#989A8B"/>
      <path d="M725.94,694.978 L725.94,643.524 L692.175,609.221 L725.94,574.918 L725.94,523.463 L774.849,523.463 L807.454,487.942 L840.06,523.463 L888.969,523.463 L888.969,574.918 L922.734,609.221 L888.969,643.524 L888.969,694.978 L840.06,694.978 L807.454,730.5 L774.849,694.978 z" fill-opacity="0" stroke="#FFFFFF" stroke-width="0.5"/>
    </g>
    <g>
      <path d="M34.264,937.537 L34.264,886.082 L0.5,851.779 L34.264,817.476 L34.264,766.022 L83.173,766.022 L115.779,730.5 L148.385,766.022 L197.294,766.022 L197.294,817.476 L231.058,851.779 L197.294,886.082 L197.294,937.537 L148.385,937.537 L115.779,973.058 L83.173,937.537 z" fill="#1D234C"/>
      <path d="M34.264,937.537 L34.264,886.082 L0.5,851.779 L34.264,817.476 L34.264,766.022 L83.173,766.022 L115.779,730.5 L148.385,766.022 L197.294,766.022 L197.294,817.476 L231.058,851.779 L197.294,886.082 L197.294,937.537 L148.385,937.537 L115.779,973.058 L83.173,937.537 z" fill-opacity="0" stroke="#FFFFFF" stroke-width="0.5"/>
    </g>
    <g>
      <path d="M264.823,937.537 L264.823,886.082 L231.058,851.779 L264.823,817.476 L264.823,766.022 L313.732,766.022 L346.338,730.5 L378.943,766.022 L427.852,766.022 L427.852,817.476 L461.617,851.779 L427.852,886.082 L427.852,937.537 L378.943,937.537 L346.338,973.058 L313.732,937.537 z" fill="#989A8B"/>
      <path d="M264.823,937.537 L264.823,886.082 L231.058,851.779 L264.823,817.476 L264.823,766.022 L313.732,766.022 L346.338,730.5 L378.943,766.022 L427.852,766.022 L427.852,817.476 L461.617,851.779 L427.852,886.082 L427.852,937.537 L378.943,937.537 L346.338,973.058 L313.732,937.537 z" fill-opacity="0" stroke="#FFFFFF" stroke-width="0.5"/>
    </g>
    <g>
      <path d="M495.381,937.537 L495.381,886.082 L461.617,851.779 L495.381,817.476 L495.381,766.022 L544.29,766.022 L576.896,730.5 L609.502,766.022 L658.411,766.022 L658.411,817.476 L692.175,851.779 L658.411,886.082 L658.411,937.537 L609.502,937.537 L576.896,973.058 L544.29,937.537 z" fill="#989A8B"/>
      <path d="M495.381,937.537 L495.381,886.082 L461.617,851.779 L495.381,817.476 L495.381,766.022 L544.29,766.022 L576.896,730.5 L609.502,766.022 L658.411,766.022 L658.411,817.476 L692.175,851.779 L658.411,886.082 L658.411,937.537 L609.502,937.537 L576.896,973.058 L544.29,937.537 z" fill-opacity="0" stroke="#FFFFFF" stroke-width="0.5"/>
    </g>
    <g>
      <path d="M723.706,937.537 L723.706,886.082 L689.942,851.779 L723.706,817.476 L723.706,766.022 L772.615,766.022 L805.221,730.5 L837.827,766.022 L886.735,766.022 L886.735,817.476 L920.5,851.779 L886.735,886.082 L886.735,937.537 L837.827,937.537 L805.221,973.058 L772.615,937.537 z" fill="#1D234C"/>
      <path d="M723.706,937.537 L723.706,886.082 L689.942,851.779 L723.706,817.476 L723.706,766.022 L772.615,766.022 L805.221,730.5 L837.827,766.022 L886.735,766.022 L886.735,817.476 L920.5,851.779 L886.735,886.082 L886.735,937.537 L837.827,937.537 L805.221,973.058 L772.615,937.537 z" fill-opacity="0" stroke="#FFFFFF" stroke-width="0.5"/>
    </g>
  </g>
</svg>
