<?xml version="1.0" encoding="UTF-8"?>
<!DOCTYPE svg PUBLIC "-//W3C//DTD SVG 1.1//EN" "http://www.w3.org/Graphics/SVG/1.1/DTD/svg11.dtd">
<svg version="1.1" xmlns="http://www.w3.org/2000/svg" xmlns:xlink="http://www.w3.org/1999/xlink" x="0" y="0" width="980" height="710" viewBox="0, 0, 980, 710">
  <g id="construction">
    <g>
      <path d="M369.485,495.283 L246.764,424.575 L247.766,426.307 L247.663,284.353 L246.662,286.087 L369.485,215.284 L367.486,215.283 L490.235,286.146 L489.235,284.416 L489.326,426.199 L490.328,424.465 L367.488,495.283 L367.488,495.283 C366.531,495.834 366.202,497.057 366.754,498.014 C367.305,498.971 368.528,499.3 369.485,498.748 C369.485,498.748 369.485,498.748 369.485,498.748 L492.325,427.93 L492.325,427.93 C492.945,427.573 493.327,426.912 493.326,426.196 L493.326,426.196 L493.235,284.413 L493.235,284.413 C493.234,283.699 492.853,283.039 492.235,282.682 L492.235,282.682 L369.486,211.819 L369.486,211.819 C368.868,211.462 368.106,211.462 367.488,211.818 L367.488,211.818 L244.664,282.622 L244.664,282.622 C244.044,282.979 243.663,283.64 243.663,284.356 L243.663,284.356 L243.766,426.31 L243.766,426.31 C243.766,427.024 244.148,427.685 244.767,428.041 L244.767,428.041 L367.488,498.748 C368.445,499.3 369.668,498.971 370.219,498.014 C370.771,497.057 370.442,495.834 369.485,495.283 L369.485,495.283" fill="#F0F0F0"/>
      <path d="M309.07,462.588 L329.603,379.438 L329.603,379.438 C329.861,378.395 329.248,377.335 328.216,377.037 L328.216,377.037 L246.321,353.382 L246.321,357.225 L328.125,333.571 L328.125,333.571 C329.157,333.273 329.769,332.212 329.511,331.169 L329.511,331.169 L309.07,248.529 L305.742,250.451 L367.1,309.503 L367.1,309.503 C367.874,310.248 369.099,310.248 369.874,309.502 L369.874,309.502 L431.21,250.45 L427.881,248.529 L407.462,331.001 L407.462,331.001 C407.204,332.045 407.817,333.106 408.851,333.404 L408.851,333.404 L490.774,356.96 L490.768,353.118 L408.771,376.952 L408.771,376.952 C407.742,377.252 407.131,378.31 407.388,379.351 L407.388,379.351 L427.88,462.587 L431.216,460.674 L369.88,401.07 L369.88,401.07 C369.104,400.316 367.869,400.316 367.093,401.07 L367.093,401.07 L305.735,460.674 L305.735,460.674 C304.943,461.444 304.924,462.71 305.694,463.502 C306.464,464.294 307.73,464.313 308.522,463.543 C308.522,463.543 308.522,463.543 308.522,463.543 L369.88,403.939 L367.093,403.939 L428.429,463.543 L428.429,463.543 C428.923,464.024 429.631,464.216 430.301,464.051 C431.373,463.787 432.028,462.703 431.764,461.631 L431.764,461.631 L411.272,378.395 L409.888,380.793 L491.885,356.959 L491.885,356.959 C492.544,356.767 493.059,356.251 493.249,355.591 C493.554,354.529 492.941,353.421 491.879,353.116 L491.879,353.116 L409.956,329.559 L411.345,331.962 L431.764,249.49 L431.764,249.49 C431.929,248.823 431.74,248.118 431.263,247.623 C430.497,246.827 429.231,246.803 428.435,247.569 L428.435,247.569 L367.099,306.621 L369.873,306.62 L308.515,247.569 L308.515,247.569 C308.02,247.092 307.315,246.903 306.648,247.068 C305.576,247.333 304.922,248.418 305.187,249.49 L305.187,249.49 L325.628,332.13 L327.014,329.728 L245.21,353.383 L245.21,353.383 C244.551,353.573 244.035,354.089 243.844,354.749 C243.538,355.81 244.15,356.919 245.211,357.225 L245.211,357.225 L327.106,380.88 L325.72,378.479 L305.187,461.629 C304.922,462.702 305.577,463.786 306.649,464.05 C307.721,464.315 308.805,463.66 309.07,462.588 L309.07,462.588" fill="#F00505"/>
    </g>
    <g>
      <path d="M123.821,494.999 L1.101,424.292 L2.102,426.024 L2,284.07 L0.998,285.804 L123.822,215 L121.823,215 L244.571,285.863 L243.571,284.132 L243.663,425.916 L244.664,424.182 L121.824,495 L121.824,495 C120.867,495.551 120.539,496.774 121.09,497.731 C121.642,498.688 122.865,499.017 123.822,498.465 C123.822,498.465 123.822,498.465 123.822,498.465 L246.662,427.647 L246.662,427.647 C247.282,427.29 247.663,426.629 247.663,425.913 L247.663,425.913 L247.571,284.13 L247.571,284.13 C247.571,283.416 247.19,282.756 246.571,282.399 L246.571,282.399 L123.823,211.536 L123.823,211.536 C123.205,211.179 122.443,211.178 121.824,211.535 L121.824,211.535 L-0.999,282.339 L-0.999,282.339 C-1.619,282.696 -2.001,283.357 -2,284.073 L-2,284.073 L-1.898,426.027 L-1.898,426.027 C-1.897,426.741 -1.515,427.401 -0.896,427.758 L-0.896,427.758 L121.825,498.465 C122.782,499.017 124.004,498.688 124.556,497.731 C125.107,496.774 124.778,495.551 123.821,494.999 L123.821,494.999" fill="#F0F0F0"/>
      <path d="M63.407,462.305 L83.94,379.154 L83.94,379.154 C84.197,378.112 83.585,377.052 82.553,376.754 L82.553,376.754 L0.657,353.099 L0.658,356.942 L82.462,333.288 L82.462,333.288 C83.494,332.989 84.105,331.929 83.848,330.886 L83.848,330.886 L63.407,248.246 L60.078,250.168 L121.436,309.219 L121.436,309.219 C122.211,309.965 123.436,309.965 124.21,309.219 L124.21,309.219 L185.546,250.167 L182.218,248.246 L161.799,330.718 L161.799,330.718 C161.54,331.762 162.154,332.823 163.187,333.121 L163.187,333.121 L245.11,356.677 L245.105,352.834 L163.108,376.669 L163.108,376.669 C162.078,376.968 161.468,378.027 161.724,379.068 L161.724,379.068 L182.217,462.304 L185.553,460.391 L124.217,400.787 L124.217,400.787 C123.441,400.033 122.206,400.033 121.429,400.787 L121.429,400.787 L60.072,460.391 L60.072,460.391 C59.279,461.161 59.261,462.427 60.03,463.219 C60.8,464.011 62.066,464.03 62.859,463.26 C62.859,463.26 62.859,463.26 62.859,463.26 L124.217,403.656 L121.429,403.656 L182.765,463.26 L182.765,463.26 C183.26,463.741 183.967,463.932 184.637,463.768 C185.71,463.503 186.365,462.42 186.101,461.347 L186.101,461.347 L165.608,378.112 L164.224,380.51 L246.221,356.675 L246.221,356.675 C246.881,356.484 247.395,355.967 247.585,355.308 C247.89,354.246 247.277,353.138 246.216,352.833 L246.216,352.833 L164.293,329.276 L165.682,331.679 L186.1,249.207 L186.1,249.207 C186.266,248.54 186.077,247.835 185.6,247.339 C184.834,246.544 183.568,246.52 182.772,247.286 L182.772,247.286 L121.436,306.338 L124.21,306.337 L62.852,247.285 L62.852,247.285 C62.357,246.809 61.652,246.62 60.985,246.785 C59.913,247.05 59.258,248.134 59.524,249.207 L59.524,249.207 L79.965,331.847 L81.351,329.445 L-0.453,353.099 L-0.453,353.099 C-1.113,353.29 -1.628,353.806 -1.819,354.466 C-2.126,355.527 -1.514,356.636 -0.453,356.942 L-0.453,356.942 L81.443,380.596 L80.056,378.196 L59.523,461.346 C59.259,462.418 59.913,463.502 60.986,463.767 C62.058,464.032 63.142,463.377 63.407,462.305 L63.407,462.305" fill="#000000"/>
    </g>
    <g>
      <path d="M246.754,708.267 L124.033,637.56 L125.035,639.291 L124.932,497.337 L123.931,499.072 L246.754,428.268 L244.755,428.267 L367.504,499.131 L366.504,497.4 L366.595,639.183 L367.596,637.449 L244.756,708.267 L244.756,708.267 C243.799,708.819 243.471,710.042 244.022,710.999 C244.574,711.956 245.797,712.284 246.754,711.733 C246.754,711.733 246.754,711.733 246.754,711.733 L369.594,640.915 L369.594,640.915 C370.214,640.557 370.596,639.896 370.595,639.181 L370.595,639.181 L370.504,497.398 L370.504,497.398 C370.503,496.683 370.122,496.024 369.503,495.667 L369.503,495.667 L246.755,424.803 L246.755,424.803 C246.137,424.446 245.375,424.446 244.756,424.803 L244.756,424.803 L121.933,495.606 L121.933,495.606 C121.313,495.964 120.931,496.625 120.932,497.34 L120.932,497.34 L121.035,639.294 L121.035,639.294 C121.035,640.009 121.417,640.669 122.036,641.026 L122.036,641.026 L244.757,711.733 C245.714,712.284 246.937,711.956 247.488,710.998 C248.04,710.041 247.711,708.818 246.754,708.267 L246.754,708.267" fill="#F0F0F0"/>
      <path d="M186.339,675.573 L206.872,592.422 L206.872,592.422 C207.129,591.379 206.517,590.319 205.485,590.021 L205.485,590.021 L123.59,566.367 L123.59,570.21 L205.394,546.555 L205.394,546.555 C206.426,546.257 207.038,545.197 206.78,544.154 L206.78,544.154 L186.339,461.514 L183.01,463.435 L244.368,522.487 L244.368,522.487 C245.143,523.232 246.368,523.232 247.142,522.487 L247.142,522.487 L308.478,463.435 L305.15,461.514 L284.731,543.985 L284.731,543.985 C284.473,545.03 285.086,546.091 286.12,546.388 L286.12,546.388 L368.043,569.945 L368.037,566.102 L286.04,589.937 L286.04,589.937 C285.01,590.236 284.4,591.294 284.656,592.335 L284.656,592.335 L305.149,675.571 L308.485,673.659 L247.149,614.055 L247.149,614.055 C246.373,613.301 245.138,613.301 244.362,614.055 L244.362,614.055 L183.004,673.659 L183.004,673.659 C182.211,674.428 182.193,675.694 182.963,676.487 C183.732,677.279 184.999,677.297 185.791,676.528 C185.791,676.528 185.791,676.528 185.791,676.528 L247.149,616.924 L244.361,616.924 L305.697,676.528 L305.697,676.528 C306.192,677.008 306.9,677.2 307.569,677.035 C308.642,676.771 309.297,675.688 309.033,674.615 L309.033,674.615 L288.54,591.379 L287.157,593.778 L369.154,569.943 L369.154,569.943 C369.813,569.752 370.328,569.235 370.517,568.575 C370.823,567.514 370.21,566.406 369.148,566.101 L369.148,566.101 L287.225,542.544 L288.614,544.947 L309.033,462.475 L309.033,462.475 C309.198,461.808 309.009,461.102 308.532,460.607 C307.766,459.811 306.5,459.787 305.704,460.553 L305.704,460.553 L244.368,519.605 L247.142,519.605 L185.784,460.553 L185.784,460.553 C185.289,460.077 184.584,459.888 183.917,460.053 C182.845,460.318 182.191,461.402 182.456,462.474 L182.456,462.474 L202.897,545.114 L204.283,542.713 L122.479,566.367 L122.479,566.367 C121.819,566.558 121.304,567.074 121.113,567.733 C120.807,568.795 121.418,569.903 122.48,570.21 L122.48,570.21 L204.375,593.864 L202.989,591.463 L182.456,674.614 C182.191,675.686 182.845,676.77 183.918,677.035 C184.99,677.3 186.074,676.645 186.339,675.573 L186.339,675.573" fill="#000000"/>
    </g>
    <g>
      <path d="M492.417,708.267 L369.697,637.56 L370.698,639.291 L370.595,497.337 L369.594,499.072 L492.417,428.268 L490.419,428.267 L613.167,499.131 L612.167,497.4 L612.259,639.183 L613.26,637.449 L490.42,708.267 L490.42,708.267 C489.463,708.819 489.134,710.042 489.686,710.999 C490.238,711.956 491.461,712.284 492.418,711.733 C492.418,711.733 492.418,711.733 492.418,711.733 L615.258,640.915 L615.258,640.915 C615.877,640.557 616.259,639.896 616.259,639.181 L616.259,639.181 L616.167,497.398 L616.167,497.398 C616.167,496.683 615.785,496.024 615.167,495.667 L615.167,495.667 L492.419,424.803 L492.419,424.803 C491.8,424.446 491.038,424.446 490.42,424.803 L490.42,424.803 L367.596,495.606 L367.596,495.606 C366.977,495.964 366.595,496.625 366.595,497.34 L366.595,497.34 L366.698,639.294 L366.698,639.294 C366.699,640.009 367.08,640.669 367.7,641.026 L367.7,641.026 L490.42,711.733 C491.377,712.284 492.6,711.956 493.152,710.998 C493.703,710.041 493.374,708.818 492.417,708.267 L492.417,708.267" fill="#F0F0F0"/>
      <path d="M432.002,675.573 L452.535,592.422 L452.535,592.422 C452.793,591.379 452.181,590.319 451.149,590.021 L451.149,590.021 L369.253,566.367 L369.254,570.21 L451.057,546.555 L451.057,546.555 C452.089,546.257 452.701,545.197 452.443,544.154 L452.443,544.154 L432.002,461.514 L428.674,463.435 L490.032,522.487 L490.032,522.487 C490.806,523.232 492.031,523.232 492.806,522.487 L492.806,522.487 L554.142,463.435 L550.813,461.514 L530.394,543.985 L530.394,543.985 C530.136,545.03 530.749,546.091 531.783,546.388 L531.783,546.388 L613.706,569.945 L613.7,566.102 L531.704,589.937 L531.704,589.937 C530.674,590.236 530.063,591.294 530.32,592.335 L530.32,592.335 L550.813,675.571 L554.148,673.659 L492.812,614.055 L492.812,614.055 C492.036,613.301 490.801,613.301 490.025,614.055 L490.025,614.055 L428.667,673.659 L428.667,673.659 C427.875,674.428 427.857,675.694 428.626,676.487 C429.396,677.279 430.662,677.297 431.454,676.528 C431.454,676.528 431.454,676.528 431.454,676.528 L492.812,616.924 L490.025,616.924 L551.361,676.528 L551.361,676.528 C551.856,677.008 552.563,677.2 553.233,677.035 C554.305,676.771 554.961,675.688 554.697,674.615 L554.697,674.615 L534.204,591.379 L532.82,593.778 L614.817,569.943 L614.817,569.943 C615.476,569.752 615.991,569.235 616.181,568.575 C616.486,567.514 615.873,566.406 614.811,566.101 L614.811,566.101 L532.889,542.544 L534.277,544.947 L554.696,462.475 L554.696,462.475 C554.861,461.808 554.672,461.102 554.195,460.607 C553.429,459.811 552.163,459.787 551.367,460.553 L551.367,460.553 L490.032,519.605 L492.806,519.605 L431.448,460.553 L431.448,460.553 C430.953,460.077 430.248,459.888 429.581,460.053 C428.508,460.318 427.854,461.402 428.119,462.474 L428.119,462.474 L448.56,545.114 L449.946,542.713 L368.143,566.367 L368.143,566.367 C367.483,566.558 366.967,567.074 366.777,567.733 C366.47,568.795 367.082,569.903 368.143,570.21 L368.143,570.21 L450.039,593.864 L448.652,591.463 L428.119,674.614 C427.854,675.686 428.509,676.77 429.581,677.035 C430.654,677.3 431.738,676.645 432.002,675.573 L432.002,675.573" fill="#000000"/>
    </g>
    <g>
      <path d="M492.417,708.267 L369.697,637.56 L370.698,639.291 L370.595,497.337 L369.594,499.072 L492.417,428.268 L490.419,428.267 L613.167,499.131 L612.167,497.4 L612.259,639.183 L613.26,637.449 L490.42,708.267 L490.42,708.267 C489.463,708.819 489.134,710.042 489.686,710.999 C490.238,711.956 491.461,712.284 492.418,711.733 C492.418,711.733 492.418,711.733 492.418,711.733 L615.258,640.915 L615.258,640.915 C615.877,640.557 616.259,639.896 616.259,639.181 L616.259,639.181 L616.167,497.398 L616.167,497.398 C616.167,496.683 615.785,496.024 615.167,495.667 L615.167,495.667 L492.419,424.803 L492.419,424.803 C491.8,424.446 491.038,424.446 490.42,424.803 L490.42,424.803 L367.596,495.606 L367.596,495.606 C366.977,495.964 366.595,496.625 366.595,497.34 L366.595,497.34 L366.698,639.294 L366.698,639.294 C366.699,640.009 367.08,640.669 367.7,641.026 L367.7,641.026 L490.42,711.733 C491.377,712.284 492.6,711.956 493.152,710.998 C493.703,710.041 493.374,708.818 492.417,708.267 L492.417,708.267" fill="#F0F0F0"/>
      <path d="M432.002,675.573 L452.535,592.422 L452.535,592.422 C452.793,591.379 452.181,590.319 451.149,590.021 L451.149,590.021 L369.253,566.367 L369.254,570.21 L451.057,546.555 L451.057,546.555 C452.089,546.257 452.701,545.197 452.443,544.154 L452.443,544.154 L432.002,461.514 L428.674,463.435 L490.032,522.487 L490.032,522.487 C490.806,523.232 492.031,523.232 492.806,522.487 L492.806,522.487 L554.142,463.435 L550.813,461.514 L530.394,543.985 L530.394,543.985 C530.136,545.03 530.749,546.091 531.783,546.388 L531.783,546.388 L613.706,569.945 L613.7,566.102 L531.704,589.937 L531.704,589.937 C530.674,590.236 530.063,591.294 530.32,592.335 L530.32,592.335 L550.813,675.571 L554.148,673.659 L492.812,614.055 L492.812,614.055 C492.036,613.301 490.801,613.301 490.025,614.055 L490.025,614.055 L428.667,673.659 L428.667,673.659 C427.875,674.428 427.857,675.694 428.626,676.487 C429.396,677.279 430.662,677.297 431.454,676.528 C431.454,676.528 431.454,676.528 431.454,676.528 L492.812,616.924 L490.025,616.924 L551.361,676.528 L551.361,676.528 C551.856,677.008 552.563,677.2 553.233,677.035 C554.305,676.771 554.961,675.688 554.697,674.615 L554.697,674.615 L534.204,591.379 L532.82,593.778 L614.817,569.943 L614.817,569.943 C615.476,569.752 615.991,569.235 616.181,568.575 C616.486,567.514 615.873,566.406 614.811,566.101 L614.811,566.101 L532.889,542.544 L534.277,544.947 L554.696,462.475 L554.696,462.475 C554.861,461.808 554.672,461.102 554.195,460.607 C553.429,459.811 552.163,459.787 551.367,460.553 L551.367,460.553 L490.032,519.605 L492.806,519.605 L431.448,460.553 L431.448,460.553 C430.953,460.077 430.248,459.888 429.581,460.053 C428.508,460.318 427.854,461.402 428.119,462.474 L428.119,462.474 L448.56,545.114 L449.946,542.713 L368.143,566.367 L368.143,566.367 C367.483,566.558 366.967,567.074 366.777,567.733 C366.47,568.795 367.082,569.903 368.143,570.21 L368.143,570.21 L450.039,593.864 L448.652,591.463 L428.119,674.614 C427.854,675.686 428.509,676.77 429.581,677.035 C430.654,677.3 431.738,676.645 432.002,675.573 L432.002,675.573" fill="#000000"/>
    </g>
    <g>
      <path d="M1.09,708.267 L-121.63,637.56 L-120.629,639.291 L-120.732,497.337 L-121.733,499.072 L1.091,428.268 L-0.908,428.267 L121.84,499.131 L120.84,497.4 L120.932,639.183 L121.933,637.449 L-0.907,708.267 L-0.907,708.267 C-1.864,708.819 -2.193,710.042 -1.641,710.999 C-1.089,711.956 0.134,712.284 1.091,711.733 C1.091,711.733 1.091,711.733 1.091,711.733 L123.931,640.915 L123.931,640.915 C124.55,640.557 124.932,639.896 124.932,639.181 L124.932,639.181 L124.84,497.398 L124.84,497.398 C124.84,496.683 124.458,496.024 123.84,495.667 L123.84,495.667 L1.092,424.803 L1.092,424.803 C0.473,424.446 -0.289,424.446 -0.907,424.803 L-0.907,424.803 L-123.73,495.606 L-123.73,495.606 C-124.35,495.964 -124.732,496.625 -124.732,497.34 L-124.732,497.34 L-124.629,639.294 L-124.629,639.294 C-124.628,640.009 -124.247,640.669 -123.627,641.026 L-123.627,641.026 L-0.907,711.733 C0.05,712.284 1.273,711.956 1.825,710.998 C2.376,710.041 2.047,708.818 1.09,708.267 L1.09,708.267" fill="#F0F0F0"/>
      <path d="M-59.324,675.573 L-38.792,592.422 L-38.792,592.422 C-38.534,591.379 -39.146,590.319 -40.178,590.021 L-40.178,590.021 L-122.074,566.367 L-122.073,570.21 L-40.27,546.555 L-40.27,546.555 C-39.238,546.257 -38.626,545.197 -38.884,544.154 L-38.884,544.154 L-59.325,461.514 L-62.653,463.435 L-1.295,522.487 L-1.295,522.487 C-0.521,523.232 0.705,523.232 1.479,522.487 L1.479,522.487 L62.815,463.435 L59.486,461.514 L39.068,543.985 L39.068,543.985 C38.809,545.03 39.423,546.091 40.456,546.388 L40.456,546.388 L122.379,569.945 L122.374,566.102 L40.377,589.937 L40.377,589.937 C39.347,590.236 38.737,591.294 38.993,592.335 L38.993,592.335 L59.486,675.571 L62.822,673.659 L1.486,614.055 L1.486,614.055 C0.709,613.301 -0.526,613.301 -1.302,614.055 L-1.302,614.055 L-62.66,673.659 L-62.66,673.659 C-63.452,674.428 -63.47,675.694 -62.701,676.487 C-61.931,677.279 -60.665,677.297 -59.873,676.528 C-59.873,676.528 -59.873,676.528 -59.873,676.528 L1.485,616.924 L-1.302,616.924 L60.034,676.528 L60.034,676.528 C60.529,677.008 61.236,677.2 61.906,677.035 C62.978,676.771 63.634,675.688 63.37,674.615 L63.37,674.615 L42.877,591.379 L41.493,593.778 L123.49,569.943 L123.49,569.943 C124.149,569.752 124.664,569.235 124.854,568.575 C125.159,567.514 124.546,566.406 123.484,566.101 L123.484,566.101 L41.562,542.544 L42.95,544.947 L63.369,462.475 L63.369,462.475 C63.534,461.808 63.345,461.102 62.869,460.607 C62.102,459.811 60.836,459.787 60.041,460.553 L60.041,460.553 L-1.295,519.605 L1.479,519.605 L-59.879,460.553 L-59.879,460.553 C-60.374,460.077 -61.079,459.888 -61.746,460.053 C-62.819,460.318 -63.473,461.402 -63.208,462.474 L-63.208,462.474 L-42.767,545.114 L-41.381,542.713 L-123.184,566.367 L-123.184,566.367 C-123.844,566.558 -124.36,567.074 -124.55,567.733 C-124.857,568.795 -124.245,569.903 -123.184,570.21 L-123.184,570.21 L-41.288,593.864 L-42.675,591.463 L-63.208,674.614 C-63.473,675.686 -62.818,676.77 -61.746,677.035 C-60.673,677.3 -59.589,676.645 -59.324,675.573 L-59.324,675.573" fill="#000000"/>
    </g>
    <g>
      <path d="M492.417,281.732 L369.697,211.025 L370.698,212.756 L370.595,70.802 L369.594,72.536 L492.417,1.733 L490.419,1.732 L613.167,72.596 L612.167,70.865 L612.259,212.648 L613.26,210.914 L490.42,281.732 L490.42,281.732 C489.463,282.284 489.134,283.507 489.686,284.464 C490.238,285.42 491.461,285.749 492.418,285.197 C492.418,285.197 492.418,285.197 492.418,285.197 L615.258,214.379 L615.258,214.379 C615.877,214.022 616.259,213.361 616.259,212.645 L616.259,212.645 L616.167,70.862 L616.167,70.862 C616.167,70.148 615.785,69.488 615.167,69.131 L615.167,69.131 L492.419,-1.732 L492.419,-1.732 C491.8,-2.089 491.038,-2.089 490.42,-1.733 L490.42,-1.733 L367.596,69.071 L367.596,69.071 C366.977,69.428 366.595,70.089 366.595,70.805 L366.595,70.805 L366.698,212.759 L366.698,212.759 C366.699,213.474 367.08,214.134 367.7,214.49 L367.7,214.49 L490.42,285.198 C491.377,285.749 492.6,285.42 493.152,284.463 C493.703,283.506 493.374,282.283 492.417,281.732 L492.417,281.732" fill="#F0F0F0"/>
      <path d="M432.002,249.037 L452.535,165.887 L452.535,165.887 C452.793,164.844 452.181,163.784 451.149,163.486 L451.149,163.486 L369.253,139.831 L369.254,143.674 L451.057,120.02 L451.057,120.02 C452.089,119.722 452.701,118.661 452.443,117.619 L452.443,117.619 L432.002,34.979 L428.674,36.9 L490.032,95.952 L490.032,95.952 C490.806,96.697 492.031,96.697 492.806,95.951 L492.806,95.951 L554.142,36.9 L550.813,34.978 L530.394,117.45 L530.394,117.45 C530.136,118.494 530.749,119.556 531.783,119.853 L531.783,119.853 L613.706,143.409 L613.7,139.567 L531.704,163.401 L531.704,163.401 C530.674,163.701 530.063,164.759 530.32,165.8 L530.32,165.8 L550.813,249.036 L554.148,247.123 L492.812,187.52 L492.812,187.52 C492.036,186.765 490.801,186.765 490.025,187.519 L490.025,187.519 L428.667,247.123 L428.667,247.123 C427.875,247.893 427.857,249.159 428.626,249.951 C429.396,250.744 430.662,250.762 431.454,249.992 C431.454,249.992 431.454,249.992 431.454,249.992 L492.812,190.388 L490.025,190.388 L551.361,249.992 L551.361,249.992 C551.856,250.473 552.563,250.665 553.233,250.5 C554.305,250.236 554.961,249.152 554.697,248.08 L554.697,248.08 L534.204,164.844 L532.82,167.242 L614.817,143.408 L614.817,143.408 C615.476,143.216 615.991,142.7 616.181,142.04 C616.486,140.978 615.873,139.87 614.811,139.565 L614.811,139.565 L532.889,116.009 L534.277,118.411 L554.696,35.939 L554.696,35.939 C554.861,35.272 554.672,34.567 554.195,34.072 C553.429,33.276 552.163,33.252 551.367,34.018 L551.367,34.018 L490.032,93.07 L492.806,93.07 L431.448,34.018 L431.448,34.018 C430.953,33.541 430.248,33.352 429.581,33.517 C428.508,33.783 427.854,34.867 428.119,35.939 L428.119,35.939 L448.56,118.579 L449.946,116.177 L368.143,139.832 L368.143,139.832 C367.483,140.022 366.967,140.538 366.777,141.198 C366.47,142.259 367.082,143.368 368.143,143.674 L368.143,143.674 L450.039,167.329 L448.652,164.928 L428.119,248.078 C427.854,249.151 428.509,250.235 429.581,250.499 C430.654,250.764 431.738,250.11 432.002,249.037 L432.002,249.037" fill="#000000"/>
    </g>
    <g>
      <path d="M246.754,281.732 L124.033,211.025 L125.035,212.756 L124.932,70.802 L123.931,72.536 L246.754,1.733 L244.755,1.732 L367.504,72.596 L366.504,70.865 L366.595,212.648 L367.596,210.914 L244.756,281.732 L244.756,281.732 C243.799,282.284 243.471,283.507 244.022,284.464 C244.574,285.42 245.797,285.749 246.754,285.197 C246.754,285.197 246.754,285.197 246.754,285.197 L369.594,214.379 L369.594,214.379 C370.214,214.022 370.596,213.361 370.595,212.645 L370.595,212.645 L370.504,70.862 L370.504,70.862 C370.503,70.148 370.122,69.488 369.503,69.131 L369.503,69.131 L246.755,-1.732 L246.755,-1.732 C246.137,-2.089 245.375,-2.089 244.756,-1.733 L244.756,-1.733 L121.933,69.071 L121.933,69.071 C121.313,69.428 120.931,70.089 120.932,70.805 L120.932,70.805 L121.035,212.759 L121.035,212.759 C121.035,213.474 121.417,214.134 122.036,214.49 L122.036,214.49 L244.757,285.198 C245.714,285.749 246.937,285.42 247.488,284.463 C248.04,283.506 247.711,282.283 246.754,281.732 L246.754,281.732" fill="#F0F0F0"/>
      <path d="M186.339,249.037 L206.872,165.887 L206.872,165.887 C207.129,164.844 206.517,163.784 205.485,163.486 L205.485,163.486 L123.59,139.831 L123.59,143.674 L205.394,120.02 L205.394,120.02 C206.426,119.722 207.038,118.661 206.78,117.619 L206.78,117.619 L186.339,34.979 L183.01,36.9 L244.368,95.952 L244.368,95.952 C245.143,96.697 246.368,96.697 247.142,95.951 L247.142,95.951 L308.478,36.9 L305.15,34.978 L284.731,117.45 L284.731,117.45 C284.473,118.494 285.086,119.556 286.12,119.853 L286.12,119.853 L368.043,143.409 L368.037,139.567 L286.04,163.401 L286.04,163.401 C285.01,163.701 284.4,164.759 284.656,165.8 L284.656,165.8 L305.149,249.036 L308.485,247.123 L247.149,187.52 L247.149,187.52 C246.373,186.765 245.138,186.765 244.362,187.519 L244.362,187.519 L183.004,247.123 L183.004,247.123 C182.211,247.893 182.193,249.159 182.963,249.951 C183.732,250.744 184.999,250.762 185.791,249.992 C185.791,249.992 185.791,249.992 185.791,249.992 L247.149,190.388 L244.361,190.388 L305.697,249.992 L305.697,249.992 C306.192,250.473 306.9,250.665 307.569,250.5 C308.642,250.236 309.297,249.152 309.033,248.08 L309.033,248.08 L288.54,164.844 L287.157,167.242 L369.154,143.408 L369.154,143.408 C369.813,143.216 370.328,142.7 370.517,142.04 C370.823,140.978 370.21,139.87 369.148,139.565 L369.148,139.565 L287.225,116.009 L288.614,118.411 L309.033,35.939 L309.033,35.939 C309.198,35.272 309.009,34.567 308.532,34.072 C307.766,33.276 306.5,33.252 305.704,34.018 L305.704,34.018 L244.368,93.07 L247.142,93.07 L185.784,34.018 L185.784,34.018 C185.289,33.541 184.584,33.352 183.917,33.517 C182.845,33.783 182.191,34.867 182.456,35.939 L182.456,35.939 L202.897,118.579 L204.283,116.177 L122.479,139.832 L122.479,139.832 C121.819,140.022 121.304,140.538 121.113,141.198 C120.807,142.259 121.418,143.368 122.48,143.674 L122.48,143.674 L204.375,167.329 L202.989,164.928 L182.456,248.078 C182.191,249.151 182.845,250.235 183.918,250.499 C184.99,250.764 186.074,250.11 186.339,249.037 L186.339,249.037" fill="#000000"/>
    </g>
    <g>
      <path d="M123.822,922.285 L1.101,851.578 L2.103,853.31 L2,711.356 L0.999,713.09 L123.822,642.286 L121.823,642.286 L244.572,713.149 L243.572,711.419 L243.663,853.202 L244.664,851.468 L121.824,922.286 L121.824,922.286 C120.868,922.837 120.539,924.06 121.091,925.017 C121.642,925.974 122.865,926.303 123.822,925.751 C123.822,925.751 123.822,925.751 123.822,925.751 L246.662,854.933 L246.662,854.933 C247.282,854.576 247.664,853.915 247.663,853.199 L247.663,853.199 L247.572,711.416 L247.572,711.416 C247.571,710.702 247.19,710.042 246.572,709.685 L246.572,709.685 L123.823,638.822 L123.823,638.822 C123.205,638.465 122.443,638.464 121.825,638.821 L121.825,638.821 L-0.999,709.625 L-0.999,709.625 C-1.619,709.982 -2.001,710.643 -2,711.359 L-2,711.359 L-1.897,853.313 L-1.897,853.313 C-1.897,854.027 -1.515,854.687 -0.896,855.044 L-0.896,855.044 L121.825,925.751 C122.782,926.303 124.005,925.974 124.556,925.017 C125.108,924.06 124.779,922.837 123.822,922.285 L123.822,922.285" fill="#F0F0F0"/>
      <path d="M63.407,889.591 L83.94,806.441 L83.94,806.441 C84.198,805.398 83.585,804.338 82.553,804.04 L82.553,804.04 L0.658,780.385 L0.658,784.228 L82.462,760.574 L82.462,760.574 C83.494,760.275 84.106,759.215 83.848,758.172 L83.848,758.172 L63.407,675.532 L60.079,677.454 L121.437,736.505 L121.437,736.505 C122.211,737.251 123.436,737.251 124.211,736.505 L124.211,736.505 L185.547,677.453 L182.218,675.532 L161.799,758.004 L161.799,758.004 C161.541,759.048 162.154,760.109 163.188,760.407 L163.188,760.407 L245.111,783.963 L245.105,780.121 L163.108,803.955 L163.108,803.955 C162.079,804.255 161.468,805.313 161.725,806.354 L161.725,806.354 L182.217,889.59 L185.553,887.677 L124.217,828.073 L124.217,828.073 C123.441,827.319 122.206,827.319 121.43,828.073 L121.43,828.073 L60.072,887.677 L60.072,887.677 C59.28,888.447 59.261,889.713 60.031,890.505 C60.801,891.297 62.067,891.316 62.859,890.546 C62.859,890.546 62.859,890.546 62.859,890.546 L124.217,830.942 L121.43,830.942 L182.766,890.546 L182.766,890.546 C183.26,891.027 183.968,891.219 184.638,891.054 C185.71,890.79 186.365,889.706 186.101,888.633 L186.101,888.633 L165.609,805.398 L164.225,807.796 L246.222,783.962 L246.222,783.962 C246.881,783.77 247.396,783.254 247.586,782.594 C247.891,781.532 247.278,780.424 246.216,780.119 L246.216,780.119 L164.293,756.562 L165.682,758.965 L186.101,676.493 L186.101,676.493 C186.266,675.826 186.077,675.121 185.6,674.625 C184.834,673.83 183.568,673.806 182.772,674.572 L182.772,674.572 L121.436,733.624 L124.21,733.623 L62.852,674.572 L62.852,674.572 C62.357,674.095 61.652,673.906 60.985,674.071 C59.913,674.336 59.259,675.421 59.524,676.493 L59.524,676.493 L79.965,759.133 L81.351,756.731 L-0.453,780.385 L-0.453,780.385 C-1.112,780.576 -1.628,781.092 -1.819,781.752 C-2.125,782.813 -1.513,783.922 -0.452,784.228 L-0.452,784.228 L81.443,807.883 L80.057,805.482 L59.524,888.632 C59.259,889.704 59.914,890.788 60.986,891.053 C62.058,891.318 63.142,890.663 63.407,889.591 L63.407,889.591" fill="#000000"/>
    </g>
    <g>
      <path d="M1.09,281.732 L-121.63,211.025 L-120.629,212.756 L-120.732,70.802 L-121.733,72.536 L1.091,1.733 L-0.908,1.732 L121.84,72.596 L120.84,70.865 L120.932,212.648 L121.933,210.914 L-0.907,281.732 L-0.907,281.732 C-1.864,282.284 -2.193,283.507 -1.641,284.464 C-1.089,285.42 0.134,285.749 1.091,285.197 C1.091,285.197 1.091,285.197 1.091,285.197 L123.931,214.379 L123.931,214.379 C124.55,214.022 124.932,213.361 124.932,212.645 L124.932,212.645 L124.84,70.862 L124.84,70.862 C124.84,70.148 124.458,69.488 123.84,69.131 L123.84,69.131 L1.092,-1.732 L1.092,-1.732 C0.473,-2.089 -0.289,-2.089 -0.907,-1.733 L-0.907,-1.733 L-123.73,69.071 L-123.73,69.071 C-124.35,69.428 -124.732,70.089 -124.732,70.805 L-124.732,70.805 L-124.629,212.759 L-124.629,212.759 C-124.628,213.474 -124.247,214.134 -123.627,214.49 L-123.627,214.49 L-0.907,285.198 C0.05,285.749 1.273,285.42 1.825,284.463 C2.376,283.506 2.047,282.283 1.09,281.732 L1.09,281.732" fill="#F0F0F0"/>
      <path d="M-59.324,249.037 L-38.792,165.887 L-38.792,165.887 C-38.534,164.844 -39.146,163.784 -40.178,163.486 L-40.178,163.486 L-122.074,139.831 L-122.073,143.674 L-40.27,120.02 L-40.27,120.02 C-39.238,119.722 -38.626,118.661 -38.884,117.619 L-38.884,117.619 L-59.325,34.979 L-62.653,36.9 L-1.295,95.952 L-1.295,95.952 C-0.521,96.697 0.705,96.697 1.479,95.951 L1.479,95.951 L62.815,36.9 L59.486,34.978 L39.068,117.45 L39.068,117.45 C38.809,118.494 39.423,119.556 40.456,119.853 L40.456,119.853 L122.379,143.409 L122.374,139.567 L40.377,163.401 L40.377,163.401 C39.347,163.701 38.737,164.759 38.993,165.8 L38.993,165.8 L59.486,249.036 L62.822,247.123 L1.486,187.52 L1.486,187.52 C0.709,186.765 -0.526,186.765 -1.302,187.519 L-1.302,187.519 L-62.66,247.123 L-62.66,247.123 C-63.452,247.893 -63.47,249.159 -62.701,249.951 C-61.931,250.744 -60.665,250.762 -59.873,249.992 C-59.873,249.992 -59.873,249.992 -59.873,249.992 L1.485,190.388 L-1.302,190.388 L60.034,249.992 L60.034,249.992 C60.529,250.473 61.236,250.665 61.906,250.5 C62.978,250.236 63.634,249.152 63.37,248.08 L63.37,248.08 L42.877,164.844 L41.493,167.242 L123.49,143.408 L123.49,143.408 C124.149,143.216 124.664,142.7 124.854,142.04 C125.159,140.978 124.546,139.87 123.484,139.565 L123.484,139.565 L41.562,116.009 L42.95,118.411 L63.369,35.939 L63.369,35.939 C63.534,35.272 63.345,34.567 62.869,34.072 C62.102,33.276 60.836,33.252 60.041,34.018 L60.041,34.018 L-1.295,93.07 L1.479,93.07 L-59.879,34.018 L-59.879,34.018 C-60.374,33.541 -61.079,33.352 -61.746,33.517 C-62.819,33.783 -63.473,34.867 -63.208,35.939 L-63.208,35.939 L-42.767,118.579 L-41.381,116.177 L-123.184,139.832 L-123.184,139.832 C-123.844,140.022 -124.36,140.538 -124.55,141.198 C-124.857,142.259 -124.245,143.368 -123.184,143.674 L-123.184,143.674 L-41.288,167.329 L-42.675,164.928 L-63.208,248.078 C-63.473,249.151 -62.818,250.235 -61.746,250.499 C-60.673,250.764 -59.589,250.11 -59.324,249.037 L-59.324,249.037" fill="#000000"/>
    </g>
    <g>
      <path d="M738.081,281.732 L615.36,211.025 L616.361,212.756 L616.259,70.802 L615.258,72.536 L738.081,1.733 L736.082,1.732 L858.83,72.596 L857.83,70.865 L857.922,212.648 L858.923,210.914 L736.083,281.732 L736.083,281.732 C735.126,282.284 734.798,283.507 735.349,284.464 C735.901,285.42 737.124,285.749 738.081,285.197 C738.081,285.197 738.081,285.197 738.081,285.197 L860.921,214.379 L860.921,214.379 C861.541,214.022 861.923,213.361 861.922,212.645 L861.922,212.645 L861.83,70.862 L861.83,70.862 C861.83,70.148 861.449,69.488 860.83,69.131 L860.83,69.131 L738.082,-1.732 L738.082,-1.732 C737.464,-2.089 736.702,-2.089 736.083,-1.733 L736.083,-1.733 L613.26,69.071 L613.26,69.071 C612.64,69.428 612.258,70.089 612.259,70.805 L612.259,70.805 L612.361,212.759 L612.361,212.759 C612.362,213.474 612.744,214.134 613.363,214.49 L613.363,214.49 L736.084,285.198 C737.041,285.749 738.264,285.42 738.815,284.463 C739.366,283.506 739.038,282.283 738.081,281.732 L738.081,281.732" fill="#F0F0F0"/>
      <path d="M677.666,249.037 L698.199,165.887 L698.199,165.887 C698.456,164.844 697.844,163.784 696.812,163.486 L696.812,163.486 L614.917,139.831 L614.917,143.674 L696.721,120.02 L696.721,120.02 C697.753,119.722 698.365,118.661 698.107,117.619 L698.107,117.619 L677.666,34.979 L674.337,36.9 L735.695,95.952 L735.695,95.952 C736.47,96.697 737.695,96.697 738.469,95.951 L738.469,95.951 L799.805,36.9 L796.477,34.978 L776.058,117.45 L776.058,117.45 C775.799,118.494 776.413,119.556 777.447,119.853 L777.447,119.853 L859.369,143.409 L859.364,139.567 L777.367,163.401 L777.367,163.401 C776.337,163.701 775.727,164.759 775.983,165.8 L775.983,165.8 L796.476,249.036 L799.812,247.123 L738.476,187.52 L738.476,187.52 C737.7,186.765 736.465,186.765 735.688,187.519 L735.688,187.519 L674.331,247.123 L674.331,247.123 C673.538,247.893 673.52,249.159 674.29,249.951 C675.059,250.744 676.325,250.762 677.118,249.992 C677.118,249.992 677.118,249.992 677.118,249.992 L738.476,190.388 L735.688,190.388 L797.024,249.992 L797.024,249.992 C797.519,250.473 798.226,250.665 798.896,250.5 C799.969,250.236 800.624,249.152 800.36,248.08 L800.36,248.08 L779.867,164.844 L778.483,167.242 L860.48,143.408 L860.48,143.408 C861.14,143.216 861.654,142.7 861.844,142.04 C862.149,140.978 861.536,139.87 860.475,139.565 L860.475,139.565 L778.552,116.009 L779.941,118.411 L800.359,35.939 L800.359,35.939 C800.525,35.272 800.336,34.567 799.859,34.072 C799.093,33.276 797.827,33.252 797.031,34.018 L797.031,34.018 L735.695,93.07 L738.469,93.07 L677.111,34.018 L677.111,34.018 C676.616,33.541 675.911,33.352 675.244,33.517 C674.172,33.783 673.517,34.867 673.783,35.939 L673.783,35.939 L694.224,118.579 L695.61,116.177 L613.806,139.832 L613.806,139.832 C613.146,140.022 612.631,140.538 612.44,141.198 C612.134,142.259 612.745,143.368 613.807,143.674 L613.807,143.674 L695.702,167.329 L694.315,164.928 L673.782,248.078 C673.518,249.151 674.172,250.235 675.245,250.499 C676.317,250.764 677.401,250.11 677.666,249.037 L677.666,249.037" fill="#000000"/>
    </g>
    <g>
      <path d="M738.081,708.267 L615.36,637.56 L616.361,639.291 L616.259,497.337 L615.258,499.072 L738.081,428.268 L736.082,428.267 L858.83,499.131 L857.83,497.4 L857.922,639.183 L858.923,637.449 L736.083,708.267 L736.083,708.267 C735.126,708.819 734.798,710.042 735.349,710.999 C735.901,711.956 737.124,712.284 738.081,711.733 C738.081,711.733 738.081,711.733 738.081,711.733 L860.921,640.915 L860.921,640.915 C861.541,640.557 861.923,639.896 861.922,639.181 L861.922,639.181 L861.83,497.398 L861.83,497.398 C861.83,496.683 861.449,496.024 860.83,495.667 L860.83,495.667 L738.082,424.803 L738.082,424.803 C737.464,424.446 736.702,424.446 736.083,424.803 L736.083,424.803 L613.26,495.606 L613.26,495.606 C612.64,495.964 612.258,496.625 612.259,497.34 L612.259,497.34 L612.361,639.294 L612.361,639.294 C612.362,640.009 612.744,640.669 613.363,641.026 L613.363,641.026 L736.084,711.733 C737.041,712.284 738.264,711.956 738.815,710.998 C739.366,710.041 739.038,708.818 738.081,708.267 L738.081,708.267" fill="#F0F0F0"/>
      <path d="M677.666,675.573 L698.199,592.422 L698.199,592.422 C698.456,591.379 697.844,590.319 696.812,590.021 L696.812,590.021 L614.917,566.367 L614.917,570.21 L696.721,546.555 L696.721,546.555 C697.753,546.257 698.365,545.197 698.107,544.154 L698.107,544.154 L677.666,461.514 L674.337,463.435 L735.695,522.487 L735.695,522.487 C736.47,523.232 737.695,523.232 738.469,522.487 L738.469,522.487 L799.805,463.435 L796.477,461.514 L776.058,543.985 L776.058,543.985 C775.799,545.03 776.413,546.091 777.447,546.388 L777.447,546.388 L859.369,569.945 L859.364,566.102 L777.367,589.937 L777.367,589.937 C776.337,590.236 775.727,591.294 775.983,592.335 L775.983,592.335 L796.476,675.571 L799.812,673.659 L738.476,614.055 L738.476,614.055 C737.7,613.301 736.465,613.301 735.688,614.055 L735.688,614.055 L674.331,673.659 L674.331,673.659 C673.538,674.428 673.52,675.694 674.29,676.487 C675.059,677.279 676.325,677.297 677.118,676.528 C677.118,676.528 677.118,676.528 677.118,676.528 L738.476,616.924 L735.688,616.924 L797.024,676.528 L797.024,676.528 C797.519,677.008 798.226,677.2 798.896,677.035 C799.969,676.771 800.624,675.688 800.36,674.615 L800.36,674.615 L779.867,591.379 L778.483,593.778 L860.48,569.943 L860.48,569.943 C861.14,569.752 861.654,569.235 861.844,568.575 C862.149,567.514 861.536,566.406 860.475,566.101 L860.475,566.101 L778.552,542.544 L779.941,544.947 L800.359,462.475 L800.359,462.475 C800.525,461.808 800.336,461.102 799.859,460.607 C799.093,459.811 797.827,459.787 797.031,460.553 L797.031,460.553 L735.695,519.605 L738.469,519.605 L677.111,460.553 L677.111,460.553 C676.616,460.077 675.911,459.888 675.244,460.053 C674.172,460.318 673.517,461.402 673.783,462.474 L673.783,462.474 L694.224,545.114 L695.61,542.713 L613.806,566.367 L613.806,566.367 C613.146,566.558 612.631,567.074 612.44,567.733 C612.134,568.795 612.745,569.903 613.807,570.21 L613.807,570.21 L695.702,593.864 L694.315,591.463 L673.782,674.614 C673.518,675.686 674.172,676.77 675.245,677.035 C676.317,677.3 677.401,676.645 677.666,675.573 L677.666,675.573" fill="#000000"/>
    </g>
    <g>
      <path d="M615.148,70.101 L492.428,-0.606 L493.429,1.125 L493.326,-140.829 L492.325,-139.095 L615.149,-209.898 L613.15,-209.899 L735.898,-139.035 L734.898,-140.766 L734.99,1.017 L735.991,-0.717 L613.151,70.101 L613.151,70.101 C612.194,70.653 611.865,71.876 612.417,72.832 C612.969,73.789 614.192,74.118 615.149,73.566 C615.149,73.566 615.149,73.566 615.149,73.566 L737.989,2.748 L737.989,2.748 C738.609,2.391 738.99,1.73 738.99,1.014 L738.99,1.014 L738.898,-140.769 L738.898,-140.769 C738.898,-141.483 738.517,-142.143 737.898,-142.5 L737.898,-142.5 L615.15,-213.363 L615.15,-213.363 C614.531,-213.72 613.77,-213.72 613.151,-213.364 L613.151,-213.364 L490.328,-142.56 L490.328,-142.56 C489.708,-142.203 489.326,-141.542 489.326,-140.826 L489.326,-140.826 L489.429,1.128 L489.429,1.128 C489.43,1.843 489.812,2.503 490.431,2.859 L490.431,2.859 L613.151,73.567 C614.108,74.118 615.331,73.789 615.883,72.832 C616.434,71.875 616.105,70.652 615.148,70.101 L615.148,70.101" fill="#F0F0F0"/>
      <path d="M554.734,37.406 L575.267,-45.744 L575.267,-45.744 C575.524,-46.787 574.912,-47.847 573.88,-48.145 L573.88,-48.145 L491.984,-71.8 L491.985,-67.957 L573.789,-91.611 L573.789,-91.611 C574.82,-91.909 575.432,-92.97 575.174,-94.012 L575.174,-94.012 L554.733,-176.652 L551.405,-174.731 L612.763,-115.679 L612.763,-115.679 C613.537,-114.934 614.763,-114.934 615.537,-115.68 L615.537,-115.68 L676.873,-174.731 L673.544,-176.653 L653.126,-94.181 L653.126,-94.181 C652.867,-93.137 653.481,-92.075 654.514,-91.778 L654.514,-91.778 L736.437,-68.222 L736.432,-72.064 L654.435,-48.23 L654.435,-48.23 C653.405,-47.93 652.795,-46.872 653.051,-45.831 L653.051,-45.831 L673.544,37.405 L676.88,35.492 L615.544,-24.111 L615.544,-24.111 C614.768,-24.866 613.532,-24.866 612.756,-24.112 L612.756,-24.112 L551.398,35.492 L551.398,35.492 C550.606,36.262 550.588,37.528 551.357,38.32 C552.127,39.113 553.393,39.131 554.186,38.361 C554.186,38.361 554.186,38.361 554.186,38.361 L615.543,-21.243 L612.756,-21.243 L674.092,38.361 L674.092,38.361 C674.587,38.842 675.294,39.034 675.964,38.869 C677.037,38.605 677.692,37.521 677.428,36.449 L677.428,36.449 L656.935,-46.787 L655.551,-44.389 L737.548,-68.223 L737.548,-68.223 C738.207,-68.415 738.722,-68.931 738.912,-69.591 C739.217,-70.653 738.604,-71.761 737.543,-72.066 L737.543,-72.066 L655.62,-95.622 L657.008,-93.22 L677.427,-175.692 L677.427,-175.692 C677.592,-176.359 677.403,-177.064 676.927,-177.559 C676.161,-178.355 674.894,-178.379 674.099,-177.613 L674.099,-177.613 L612.763,-118.561 L615.537,-118.561 L554.179,-177.613 L554.179,-177.613 C553.684,-178.09 552.979,-178.279 552.312,-178.114 C551.24,-177.848 550.585,-176.764 550.85,-175.692 L550.85,-175.692 L571.291,-93.052 L572.677,-95.454 L490.874,-71.799 L490.874,-71.799 C490.214,-71.609 489.698,-71.093 489.508,-70.433 C489.201,-69.372 489.813,-68.263 490.874,-67.957 L490.874,-67.957 L572.77,-44.302 L571.383,-46.703 L550.85,36.447 C550.586,37.52 551.24,38.604 552.312,38.868 C553.385,39.133 554.469,38.479 554.734,37.406 L554.734,37.406" fill="#000000"/>
    </g>
    <g>
      <path d="M369.485,922.285 L246.765,851.578 L247.766,853.31 L247.663,711.356 L246.662,713.09 L369.486,642.286 L367.487,642.286 L490.235,713.149 L489.235,711.419 L489.327,853.202 L490.328,851.468 L367.488,922.286 L367.488,922.286 C366.531,922.837 366.202,924.06 366.754,925.017 C367.306,925.974 368.529,926.303 369.486,925.751 C369.486,925.751 369.486,925.751 369.486,925.751 L492.326,854.933 L492.326,854.933 C492.946,854.576 493.327,853.915 493.327,853.199 L493.327,853.199 L493.235,711.416 L493.235,711.416 C493.235,710.702 492.854,710.042 492.235,709.685 L492.235,709.685 L369.487,638.822 L369.487,638.822 C368.868,638.465 368.107,638.464 367.488,638.821 L367.488,638.821 L244.665,709.625 L244.665,709.625 C244.045,709.982 243.663,710.643 243.663,711.359 L243.663,711.359 L243.766,853.313 L243.766,853.313 C243.767,854.027 244.149,854.687 244.768,855.044 L244.768,855.044 L367.488,925.751 C368.445,926.303 369.668,925.974 370.22,925.017 C370.771,924.06 370.442,922.837 369.485,922.285 L369.485,922.285" fill="#F0F0F0"/>
      <path d="M309.071,889.591 L329.603,806.441 L329.603,806.441 C329.861,805.398 329.249,804.338 328.217,804.04 L328.217,804.04 L246.321,780.385 L246.322,784.228 L328.125,760.574 L328.125,760.574 C329.157,760.275 329.769,759.215 329.511,758.172 L329.511,758.172 L309.07,675.532 L305.742,677.454 L367.1,736.505 L367.1,736.505 C367.874,737.251 369.1,737.251 369.874,736.505 L369.874,736.505 L431.21,677.453 L427.881,675.532 L407.463,758.004 L407.463,758.004 C407.204,759.048 407.818,760.109 408.851,760.407 L408.851,760.407 L490.774,783.963 L490.769,780.121 L408.772,803.955 L408.772,803.955 C407.742,804.255 407.132,805.313 407.388,806.354 L407.388,806.354 L427.881,889.59 L431.217,887.677 L369.881,828.073 L369.881,828.073 C369.105,827.319 367.869,827.319 367.093,828.073 L367.093,828.073 L305.735,887.677 L305.735,887.677 C304.943,888.447 304.925,889.713 305.694,890.505 C306.464,891.297 307.73,891.316 308.522,890.546 C308.522,890.546 308.522,890.546 308.522,890.546 L369.88,830.942 L367.093,830.942 L428.429,890.546 L428.429,890.546 C428.924,891.027 429.631,891.219 430.301,891.054 C431.373,890.79 432.029,889.706 431.765,888.633 L431.765,888.633 L411.272,805.398 L409.888,807.796 L491.885,783.962 L491.885,783.962 C492.544,783.77 493.059,783.254 493.249,782.594 C493.554,781.532 492.941,780.424 491.88,780.119 L491.88,780.119 L409.957,756.562 L411.345,758.965 L431.764,676.493 L431.764,676.493 C431.929,675.826 431.74,675.121 431.264,674.625 C430.497,673.83 429.231,673.806 428.436,674.572 L428.436,674.572 L367.1,733.624 L369.874,733.623 L308.516,674.572 L308.516,674.572 C308.021,674.095 307.316,673.906 306.649,674.071 C305.576,674.336 304.922,675.421 305.187,676.493 L305.187,676.493 L325.628,759.133 L327.014,756.731 L245.211,780.385 L245.211,780.385 C244.551,780.576 244.035,781.092 243.845,781.752 C243.538,782.813 244.15,783.922 245.211,784.228 L245.211,784.228 L327.107,807.883 L325.72,805.482 L305.187,888.632 C304.922,889.704 305.577,890.788 306.649,891.053 C307.722,891.318 308.806,890.663 309.071,889.591 L309.071,889.591" fill="#000000"/>
    </g>
    <g>
      <path d="M615.148,922.285 L492.428,851.578 L493.429,853.31 L493.326,711.356 L492.325,713.09 L615.149,642.286 L613.15,642.286 L735.898,713.149 L734.898,711.419 L734.99,853.202 L735.991,851.468 L613.151,922.286 L613.151,922.286 C612.194,922.837 611.865,924.06 612.417,925.017 C612.969,925.974 614.192,926.303 615.149,925.751 C615.149,925.751 615.149,925.751 615.149,925.751 L737.989,854.933 L737.989,854.933 C738.609,854.576 738.99,853.915 738.99,853.199 L738.99,853.199 L738.898,711.416 L738.898,711.416 C738.898,710.702 738.517,710.042 737.898,709.685 L737.898,709.685 L615.15,638.822 L615.15,638.822 C614.531,638.465 613.77,638.464 613.151,638.821 L613.151,638.821 L490.328,709.625 L490.328,709.625 C489.708,709.982 489.326,710.643 489.326,711.359 L489.326,711.359 L489.429,853.313 L489.429,853.313 C489.43,854.027 489.812,854.687 490.431,855.044 L490.431,855.044 L613.151,925.751 C614.108,926.303 615.331,925.974 615.883,925.017 C616.434,924.06 616.105,922.837 615.148,922.285 L615.148,922.285" fill="#F0F0F0"/>
      <path d="M554.734,889.591 L575.267,806.441 L575.267,806.441 C575.524,805.398 574.912,804.338 573.88,804.04 L573.88,804.04 L491.984,780.385 L491.985,784.228 L573.789,760.574 L573.789,760.574 C574.82,760.275 575.432,759.215 575.174,758.172 L575.174,758.172 L554.733,675.532 L551.405,677.454 L612.763,736.505 L612.763,736.505 C613.537,737.251 614.763,737.251 615.537,736.505 L615.537,736.505 L676.873,677.453 L673.544,675.532 L653.126,758.004 L653.126,758.004 C652.867,759.048 653.481,760.109 654.514,760.407 L654.514,760.407 L736.437,783.963 L736.432,780.121 L654.435,803.955 L654.435,803.955 C653.405,804.255 652.795,805.313 653.051,806.354 L653.051,806.354 L673.544,889.59 L676.88,887.677 L615.544,828.073 L615.544,828.073 C614.768,827.319 613.532,827.319 612.756,828.073 L612.756,828.073 L551.398,887.677 L551.398,887.677 C550.606,888.447 550.588,889.713 551.357,890.505 C552.127,891.297 553.393,891.316 554.186,890.546 C554.186,890.546 554.186,890.546 554.186,890.546 L615.543,830.942 L612.756,830.942 L674.092,890.546 L674.092,890.546 C674.587,891.027 675.294,891.219 675.964,891.054 C677.037,890.79 677.692,889.706 677.428,888.633 L677.428,888.633 L656.935,805.398 L655.551,807.796 L737.548,783.962 L737.548,783.962 C738.207,783.77 738.722,783.254 738.912,782.594 C739.217,781.532 738.604,780.424 737.543,780.119 L737.543,780.119 L655.62,756.562 L657.008,758.965 L677.427,676.493 L677.427,676.493 C677.592,675.826 677.403,675.121 676.927,674.625 C676.161,673.83 674.894,673.806 674.099,674.572 L674.099,674.572 L612.763,733.624 L615.537,733.623 L554.179,674.572 L554.179,674.572 C553.684,674.095 552.979,673.906 552.312,674.071 C551.24,674.336 550.585,675.421 550.85,676.493 L550.85,676.493 L571.291,759.133 L572.677,756.731 L490.874,780.385 L490.874,780.385 C490.214,780.576 489.698,781.092 489.508,781.752 C489.201,782.813 489.813,783.922 490.874,784.228 L490.874,784.228 L572.77,807.883 L571.383,805.482 L550.85,888.632 C550.586,889.704 551.24,890.788 552.312,891.053 C553.385,891.318 554.469,890.663 554.734,889.591 L554.734,889.591" fill="#000000"/>
    </g>
    <g>
      <path d="M123.822,70.101 L1.101,-0.606 L2.103,1.125 L2,-140.829 L0.999,-139.095 L123.822,-209.898 L121.823,-209.899 L244.572,-139.035 L243.572,-140.766 L243.663,1.017 L244.664,-0.717 L121.824,70.101 L121.824,70.101 C120.868,70.653 120.539,71.876 121.091,72.832 C121.642,73.789 122.865,74.118 123.822,73.566 C123.822,73.566 123.822,73.566 123.822,73.566 L246.662,2.748 L246.662,2.748 C247.282,2.391 247.664,1.73 247.663,1.014 L247.663,1.014 L247.572,-140.769 L247.572,-140.769 C247.571,-141.483 247.19,-142.143 246.572,-142.5 L246.572,-142.5 L123.823,-213.363 L123.823,-213.363 C123.205,-213.72 122.443,-213.72 121.825,-213.364 L121.825,-213.364 L-0.999,-142.56 L-0.999,-142.56 C-1.619,-142.203 -2.001,-141.542 -2,-140.826 L-2,-140.826 L-1.897,1.128 L-1.897,1.128 C-1.897,1.843 -1.515,2.503 -0.896,2.859 L-0.896,2.859 L121.825,73.567 C122.782,74.118 124.005,73.789 124.556,72.832 C125.108,71.875 124.779,70.652 123.822,70.101 L123.822,70.101" fill="#F0F0F0"/>
      <path d="M63.407,37.406 L83.94,-45.744 L83.94,-45.744 C84.198,-46.787 83.585,-47.847 82.553,-48.145 L82.553,-48.145 L0.658,-71.8 L0.658,-67.957 L82.462,-91.611 L82.462,-91.611 C83.494,-91.909 84.106,-92.97 83.848,-94.012 L83.848,-94.012 L63.407,-176.652 L60.079,-174.731 L121.437,-115.679 L121.437,-115.679 C122.211,-114.934 123.436,-114.934 124.211,-115.68 L124.211,-115.68 L185.547,-174.731 L182.218,-176.653 L161.799,-94.181 L161.799,-94.181 C161.541,-93.137 162.154,-92.075 163.188,-91.778 L163.188,-91.778 L245.111,-68.222 L245.105,-72.064 L163.108,-48.23 L163.108,-48.23 C162.079,-47.93 161.468,-46.872 161.725,-45.831 L161.725,-45.831 L182.217,37.405 L185.553,35.492 L124.217,-24.111 L124.217,-24.111 C123.441,-24.866 122.206,-24.866 121.43,-24.112 L121.43,-24.112 L60.072,35.492 L60.072,35.492 C59.28,36.262 59.261,37.528 60.031,38.32 C60.801,39.113 62.067,39.131 62.859,38.361 C62.859,38.361 62.859,38.361 62.859,38.361 L124.217,-21.243 L121.43,-21.243 L182.766,38.361 L182.766,38.361 C183.26,38.842 183.968,39.034 184.638,38.869 C185.71,38.605 186.365,37.521 186.101,36.449 L186.101,36.449 L165.609,-46.787 L164.225,-44.389 L246.222,-68.223 L246.222,-68.223 C246.881,-68.415 247.396,-68.931 247.586,-69.591 C247.891,-70.653 247.278,-71.761 246.216,-72.066 L246.216,-72.066 L164.293,-95.622 L165.682,-93.22 L186.101,-175.692 L186.101,-175.692 C186.266,-176.359 186.077,-177.064 185.6,-177.559 C184.834,-178.355 183.568,-178.379 182.772,-177.613 L182.772,-177.613 L121.436,-118.561 L124.21,-118.561 L62.852,-177.613 L62.852,-177.613 C62.357,-178.09 61.652,-178.279 60.985,-178.114 C59.913,-177.848 59.259,-176.764 59.524,-175.692 L59.524,-175.692 L79.965,-93.052 L81.351,-95.454 L-0.453,-71.799 L-0.453,-71.799 C-1.112,-71.609 -1.628,-71.093 -1.819,-70.433 C-2.125,-69.372 -1.513,-68.263 -0.452,-67.957 L-0.452,-67.957 L81.443,-44.302 L80.057,-46.703 L59.524,36.447 C59.259,37.52 59.914,38.604 60.986,38.868 C62.058,39.133 63.142,38.479 63.407,37.406 L63.407,37.406" fill="#000000"/>
    </g>
    <g>
      <path d="M369.485,70.101 L246.765,-0.606 L247.766,1.125 L247.663,-140.829 L246.662,-139.095 L369.486,-209.898 L367.487,-209.899 L490.235,-139.035 L489.235,-140.766 L489.327,1.017 L490.328,-0.717 L367.488,70.101 L367.488,70.101 C366.531,70.653 366.202,71.876 366.754,72.832 C367.306,73.789 368.529,74.118 369.486,73.566 C369.486,73.566 369.486,73.566 369.486,73.566 L492.326,2.748 L492.326,2.748 C492.946,2.391 493.327,1.73 493.327,1.014 L493.327,1.014 L493.235,-140.769 L493.235,-140.769 C493.235,-141.483 492.854,-142.143 492.235,-142.5 L492.235,-142.5 L369.487,-213.363 L369.487,-213.363 C368.868,-213.72 368.107,-213.72 367.488,-213.364 L367.488,-213.364 L244.665,-142.56 L244.665,-142.56 C244.045,-142.203 243.663,-141.542 243.663,-140.826 L243.663,-140.826 L243.766,1.128 L243.766,1.128 C243.767,1.843 244.149,2.503 244.768,2.859 L244.768,2.859 L367.488,73.567 C368.445,74.118 369.668,73.789 370.22,72.832 C370.771,71.875 370.442,70.652 369.485,70.101 L369.485,70.101" fill="#F0F0F0"/>
      <path d="M309.071,37.406 L329.603,-45.744 L329.603,-45.744 C329.861,-46.787 329.249,-47.847 328.217,-48.145 L328.217,-48.145 L246.321,-71.8 L246.322,-67.957 L328.125,-91.611 L328.125,-91.611 C329.157,-91.909 329.769,-92.97 329.511,-94.012 L329.511,-94.012 L309.07,-176.652 L305.742,-174.731 L367.1,-115.679 L367.1,-115.679 C367.874,-114.934 369.1,-114.934 369.874,-115.68 L369.874,-115.68 L431.21,-174.731 L427.881,-176.653 L407.463,-94.181 L407.463,-94.181 C407.204,-93.137 407.818,-92.075 408.851,-91.778 L408.851,-91.778 L490.774,-68.222 L490.769,-72.064 L408.772,-48.23 L408.772,-48.23 C407.742,-47.93 407.132,-46.872 407.388,-45.831 L407.388,-45.831 L427.881,37.405 L431.217,35.492 L369.881,-24.111 L369.881,-24.111 C369.105,-24.866 367.869,-24.866 367.093,-24.112 L367.093,-24.112 L305.735,35.492 L305.735,35.492 C304.943,36.262 304.925,37.528 305.694,38.32 C306.464,39.113 307.73,39.131 308.522,38.361 C308.522,38.361 308.522,38.361 308.522,38.361 L369.88,-21.243 L367.093,-21.243 L428.429,38.361 L428.429,38.361 C428.924,38.842 429.631,39.034 430.301,38.869 C431.373,38.605 432.029,37.521 431.765,36.449 L431.765,36.449 L411.272,-46.787 L409.888,-44.389 L491.885,-68.223 L491.885,-68.223 C492.544,-68.415 493.059,-68.931 493.249,-69.591 C493.554,-70.653 492.941,-71.761 491.88,-72.066 L491.88,-72.066 L409.957,-95.622 L411.345,-93.22 L431.764,-175.692 L431.764,-175.692 C431.929,-176.359 431.74,-177.064 431.264,-177.559 C430.497,-178.355 429.231,-178.379 428.436,-177.613 L428.436,-177.613 L367.1,-118.561 L369.874,-118.561 L308.516,-177.613 L308.516,-177.613 C308.021,-178.09 307.316,-178.279 306.649,-178.114 C305.576,-177.848 304.922,-176.764 305.187,-175.692 L305.187,-175.692 L325.628,-93.052 L327.014,-95.454 L245.211,-71.799 L245.211,-71.799 C244.551,-71.609 244.035,-71.093 243.845,-70.433 C243.538,-69.372 244.15,-68.263 245.211,-67.957 L245.211,-67.957 L327.107,-44.302 L325.72,-46.703 L305.187,36.447 C304.922,37.52 305.577,38.604 306.649,38.868 C307.722,39.133 308.806,38.479 309.071,37.406 L309.071,37.406" fill="#000000"/>
    </g>
    <g>
      <path d="M615.148,494.999 L492.428,424.292 L493.429,426.024 L493.326,284.07 L492.325,285.804 L615.149,215 L613.15,215 L735.898,285.863 L734.898,284.132 L734.99,425.916 L735.991,424.182 L613.151,495 L613.151,495 C612.194,495.551 611.865,496.774 612.417,497.731 C612.969,498.688 614.192,499.017 615.149,498.465 C615.149,498.465 615.149,498.465 615.149,498.465 L737.989,427.647 L737.989,427.647 C738.609,427.29 738.99,426.629 738.99,425.913 L738.99,425.913 L738.898,284.13 L738.898,284.13 C738.898,283.416 738.517,282.756 737.898,282.399 L737.898,282.399 L615.15,211.536 L615.15,211.536 C614.531,211.179 613.77,211.178 613.151,211.535 L613.151,211.535 L490.328,282.339 L490.328,282.339 C489.708,282.696 489.326,283.357 489.326,284.073 L489.326,284.073 L489.429,426.027 L489.429,426.027 C489.43,426.741 489.812,427.401 490.431,427.758 L490.431,427.758 L613.151,498.465 C614.108,499.017 615.331,498.688 615.883,497.731 C616.434,496.774 616.105,495.551 615.148,494.999 L615.148,494.999" fill="#F0F0F0"/>
      <path d="M554.734,462.305 L575.267,379.154 L575.267,379.154 C575.524,378.112 574.912,377.052 573.88,376.754 L573.88,376.754 L491.984,353.099 L491.985,356.942 L573.789,333.288 L573.789,333.288 C574.82,332.989 575.432,331.929 575.174,330.886 L575.174,330.886 L554.733,248.246 L551.405,250.168 L612.763,309.219 L612.763,309.219 C613.537,309.965 614.763,309.965 615.537,309.219 L615.537,309.219 L676.873,250.167 L673.544,248.246 L653.126,330.718 L653.126,330.718 C652.867,331.762 653.481,332.823 654.514,333.121 L654.514,333.121 L736.437,356.677 L736.432,352.834 L654.435,376.669 L654.435,376.669 C653.405,376.968 652.795,378.027 653.051,379.068 L653.051,379.068 L673.544,462.304 L676.88,460.391 L615.544,400.787 L615.544,400.787 C614.768,400.033 613.532,400.033 612.756,400.787 L612.756,400.787 L551.398,460.391 L551.398,460.391 C550.606,461.161 550.588,462.427 551.357,463.219 C552.127,464.011 553.393,464.03 554.186,463.26 C554.186,463.26 554.186,463.26 554.186,463.26 L615.543,403.656 L612.756,403.656 L674.092,463.26 L674.092,463.26 C674.587,463.741 675.294,463.932 675.964,463.768 C677.037,463.503 677.692,462.42 677.428,461.347 L677.428,461.347 L656.935,378.112 L655.551,380.51 L737.548,356.675 L737.548,356.675 C738.207,356.484 738.722,355.967 738.912,355.308 C739.217,354.246 738.604,353.138 737.543,352.833 L737.543,352.833 L655.62,329.276 L657.008,331.679 L677.427,249.207 L677.427,249.207 C677.592,248.54 677.403,247.835 676.927,247.339 C676.161,246.544 674.894,246.52 674.099,247.286 L674.099,247.286 L612.763,306.338 L615.537,306.337 L554.179,247.285 L554.179,247.285 C553.684,246.809 552.979,246.62 552.312,246.785 C551.24,247.05 550.585,248.134 550.85,249.207 L550.85,249.207 L571.291,331.847 L572.677,329.445 L490.874,353.099 L490.874,353.099 C490.214,353.29 489.698,353.806 489.508,354.466 C489.201,355.527 489.813,356.636 490.874,356.942 L490.874,356.942 L572.77,380.596 L571.383,378.196 L550.85,461.346 C550.586,462.418 551.24,463.502 552.312,463.767 C553.385,464.032 554.469,463.377 554.734,462.305 L554.734,462.305" fill="#000000"/>
    </g>
    <g>
      <path d="M860.812,70.101 L738.091,-0.606 L739.093,1.125 L738.99,-140.829 L737.989,-139.095 L860.812,-209.898 L858.813,-209.899 L981.562,-139.035 L980.562,-140.766 L980.653,1.017 L981.654,-0.717 L858.814,70.101 L858.814,70.101 C857.857,70.653 857.529,71.876 858.081,72.832 C858.632,73.789 859.855,74.118 860.812,73.566 C860.812,73.566 860.812,73.566 860.812,73.566 L983.652,2.748 L983.652,2.748 C984.272,2.391 984.654,1.73 984.653,1.014 L984.653,1.014 L984.562,-140.769 L984.562,-140.769 C984.561,-141.483 984.18,-142.143 983.562,-142.5 L983.562,-142.5 L860.813,-213.363 L860.813,-213.363 C860.195,-213.72 859.433,-213.72 858.814,-213.364 L858.814,-213.364 L735.991,-142.56 L735.991,-142.56 C735.371,-142.203 734.989,-141.542 734.99,-140.826 L734.99,-140.826 L735.093,1.128 L735.093,1.128 C735.093,1.843 735.475,2.503 736.094,2.859 L736.094,2.859 L858.815,73.567 C859.772,74.118 860.995,73.789 861.546,72.832 C862.098,71.875 861.769,70.652 860.812,70.101 L860.812,70.101" fill="#F0F0F0"/>
      <path d="M800.397,37.406 L820.93,-45.744 L820.93,-45.744 C821.188,-46.787 820.575,-47.847 819.543,-48.145 L819.543,-48.145 L737.648,-71.8 L737.648,-67.957 L819.452,-91.611 L819.452,-91.611 C820.484,-91.909 821.096,-92.97 820.838,-94.012 L820.838,-94.012 L800.397,-176.652 L797.069,-174.731 L858.426,-115.679 L858.426,-115.679 C859.201,-114.934 860.426,-114.934 861.2,-115.68 L861.2,-115.68 L922.536,-174.731 L919.208,-176.653 L898.789,-94.181 L898.789,-94.181 C898.531,-93.137 899.144,-92.075 900.178,-91.778 L900.178,-91.778 L982.101,-68.222 L982.095,-72.064 L900.098,-48.23 L900.098,-48.23 C899.069,-47.93 898.458,-46.872 898.714,-45.831 L898.714,-45.831 L919.207,37.405 L922.543,35.492 L861.207,-24.111 L861.207,-24.111 C860.431,-24.866 859.196,-24.866 858.42,-24.112 L858.42,-24.112 L797.062,35.492 L797.062,35.492 C796.27,36.262 796.251,37.528 797.021,38.32 C797.79,39.113 799.057,39.131 799.849,38.361 C799.849,38.361 799.849,38.361 799.849,38.361 L861.207,-21.243 L858.419,-21.243 L919.755,38.361 L919.755,38.361 C920.25,38.842 920.958,39.034 921.627,38.869 C922.7,38.605 923.355,37.521 923.091,36.449 L923.091,36.449 L902.598,-46.787 L901.215,-44.389 L983.212,-68.223 L983.212,-68.223 C983.871,-68.415 984.386,-68.931 984.576,-69.591 C984.881,-70.653 984.268,-71.761 983.206,-72.066 L983.206,-72.066 L901.283,-95.622 L902.672,-93.22 L923.091,-175.692 L923.091,-175.692 C923.256,-176.359 923.067,-177.064 922.59,-177.559 C921.824,-178.355 920.558,-178.379 919.762,-177.613 L919.762,-177.613 L858.426,-118.561 L861.2,-118.561 L799.842,-177.613 L799.842,-177.613 C799.347,-178.09 798.642,-178.279 797.975,-178.114 C796.903,-177.848 796.249,-176.764 796.514,-175.692 L796.514,-175.692 L816.955,-93.052 L818.341,-95.454 L736.537,-71.799 L736.537,-71.799 C735.878,-71.609 735.362,-71.093 735.171,-70.433 C734.865,-69.372 735.477,-68.263 736.538,-67.957 L736.538,-67.957 L818.433,-44.302 L817.047,-46.703 L796.514,36.447 C796.249,37.52 796.904,38.604 797.976,38.868 C799.048,39.133 800.132,38.479 800.397,37.406 L800.397,37.406" fill="#000000"/>
    </g>
    <g>
      <path d="M983.744,281.732 L861.023,211.025 L862.025,212.756 L861.922,70.802 L860.921,72.536 L983.744,1.733 L981.746,1.732 L1104.494,72.596 L1103.494,70.865 L1103.586,212.648 L1104.587,210.914 L981.747,281.732 L981.747,281.732 C980.79,282.284 980.461,283.507 981.013,284.464 C981.565,285.42 982.787,285.749 983.744,285.197 C983.744,285.197 983.744,285.197 983.744,285.197 L1106.584,214.379 L1106.584,214.379 C1107.204,214.022 1107.586,213.361 1107.586,212.645 L1107.586,212.645 L1107.494,70.862 L1107.494,70.862 C1107.493,70.148 1107.112,69.488 1106.494,69.131 L1106.494,69.131 L983.745,-1.732 L983.745,-1.732 C983.127,-2.089 982.365,-2.089 981.747,-1.733 L981.747,-1.733 L858.923,69.071 L858.923,69.071 C858.303,69.428 857.922,70.089 857.922,70.805 L857.922,70.805 L858.025,212.759 L858.025,212.759 C858.025,213.474 858.407,214.134 859.026,214.49 L859.026,214.49 L981.747,285.198 C982.704,285.749 983.927,285.42 984.478,284.463 C985.03,283.506 984.701,282.283 983.744,281.732 L983.744,281.732" fill="#F0F0F0"/>
      <path d="M923.329,249.037 L943.862,165.887 L943.862,165.887 C944.12,164.844 943.508,163.784 942.476,163.486 L942.476,163.486 L860.58,139.831 L860.581,143.674 L942.384,120.02 L942.384,120.02 C943.416,119.722 944.028,118.661 943.77,117.619 L943.77,117.619 L923.329,34.979 L920.001,36.9 L981.359,95.952 L981.359,95.952 C982.133,96.697 983.358,96.697 984.133,95.951 L984.133,95.951 L1045.469,36.9 L1042.14,34.978 L1021.721,117.45 L1021.721,117.45 C1021.463,118.494 1022.076,119.556 1023.11,119.853 L1023.11,119.853 L1105.033,143.409 L1105.027,139.567 L1023.03,163.401 L1023.03,163.401 C1022.001,163.701 1021.39,164.759 1021.647,165.8 L1021.647,165.8 L1042.14,249.036 L1045.475,247.123 L984.139,187.52 L984.139,187.52 C983.363,186.765 982.128,186.765 981.352,187.519 L981.352,187.519 L919.994,247.123 L919.994,247.123 C919.202,247.893 919.183,249.159 919.953,249.951 C920.723,250.744 921.989,250.762 922.781,249.992 C922.781,249.992 922.781,249.992 922.781,249.992 L984.139,190.388 L981.352,190.388 L1042.688,249.992 L1042.688,249.992 C1043.182,250.473 1043.89,250.665 1044.56,250.5 C1045.632,250.236 1046.288,249.152 1046.024,248.08 L1046.024,248.08 L1025.531,164.844 L1024.147,167.242 L1106.144,143.408 L1106.144,143.408 C1106.803,143.216 1107.318,142.7 1107.508,142.04 C1107.813,140.978 1107.2,139.87 1106.138,139.565 L1106.138,139.565 L1024.215,116.009 L1025.604,118.411 L1046.023,35.939 L1046.023,35.939 C1046.188,35.272 1045.999,34.567 1045.522,34.072 C1044.756,33.276 1043.49,33.252 1042.694,34.018 L1042.694,34.018 L981.358,93.07 L984.132,93.07 L922.774,34.018 L922.774,34.018 C922.279,33.541 921.574,33.352 920.907,33.517 C919.835,33.783 919.181,34.867 919.446,35.939 L919.446,35.939 L939.887,118.579 L941.273,116.177 L859.469,139.832 L859.469,139.832 C858.81,140.022 858.294,140.538 858.104,141.198 C857.797,142.259 858.409,143.368 859.47,143.674 L859.47,143.674 L941.366,167.329 L939.979,164.928 L919.446,248.078 C919.181,249.151 919.836,250.235 920.908,250.499 C921.98,250.764 923.064,250.11 923.329,249.037 L923.329,249.037" fill="#000000"/>
    </g>
    <g>
      <path d="M860.812,495.283 L738.091,424.575 L739.093,426.307 L738.99,284.353 L737.989,286.087 L860.812,215.284 L858.813,215.283 L981.562,286.146 L980.562,284.416 L980.653,426.199 L981.654,424.465 L858.814,495.283 L858.814,495.283 C857.857,495.834 857.529,497.057 858.081,498.014 C858.632,498.971 859.855,499.3 860.812,498.748 C860.812,498.748 860.812,498.748 860.812,498.748 L983.652,427.93 L983.652,427.93 C984.272,427.573 984.654,426.912 984.653,426.196 L984.653,426.196 L984.562,284.413 L984.562,284.413 C984.561,283.699 984.18,283.039 983.562,282.682 L983.562,282.682 L860.813,211.819 L860.813,211.819 C860.195,211.462 859.433,211.462 858.814,211.818 L858.814,211.818 L735.991,282.622 L735.991,282.622 C735.371,282.979 734.989,283.64 734.99,284.356 L734.99,284.356 L735.093,426.31 L735.093,426.31 C735.093,427.024 735.475,427.685 736.094,428.041 L736.094,428.041 L858.815,498.748 C859.772,499.3 860.995,498.971 861.546,498.014 C862.098,497.057 861.769,495.834 860.812,495.283 L860.812,495.283" fill="#F0F0F0"/>
      <path d="M800.397,462.588 L820.93,379.438 L820.93,379.438 C821.188,378.395 820.575,377.335 819.543,377.037 L819.543,377.037 L737.648,353.382 L737.648,357.225 L819.452,333.571 L819.452,333.571 C820.484,333.273 821.096,332.212 820.838,331.169 L820.838,331.169 L800.397,248.529 L797.069,250.451 L858.426,309.503 L858.426,309.503 C859.201,310.248 860.426,310.248 861.2,309.502 L861.2,309.502 L922.536,250.45 L919.208,248.529 L898.789,331.001 L898.789,331.001 C898.531,332.045 899.144,333.106 900.178,333.404 L900.178,333.404 L982.101,356.96 L982.095,353.118 L900.098,376.952 L900.098,376.952 C899.069,377.252 898.458,378.31 898.714,379.351 L898.714,379.351 L919.207,462.587 L922.543,460.674 L861.207,401.07 L861.207,401.07 C860.431,400.316 859.196,400.316 858.42,401.07 L858.42,401.07 L797.062,460.674 L797.062,460.674 C796.27,461.444 796.251,462.71 797.021,463.502 C797.79,464.294 799.057,464.313 799.849,463.543 C799.849,463.543 799.849,463.543 799.849,463.543 L861.207,403.939 L858.419,403.939 L919.755,463.543 L919.755,463.543 C920.25,464.024 920.958,464.216 921.627,464.051 C922.7,463.787 923.355,462.703 923.091,461.631 L923.091,461.631 L902.598,378.395 L901.215,380.793 L983.212,356.959 L983.212,356.959 C983.871,356.767 984.386,356.251 984.576,355.591 C984.881,354.529 984.268,353.421 983.206,353.116 L983.206,353.116 L901.283,329.559 L902.672,331.962 L923.091,249.49 L923.091,249.49 C923.256,248.823 923.067,248.118 922.59,247.623 C921.824,246.827 920.558,246.803 919.762,247.569 L919.762,247.569 L858.426,306.621 L861.2,306.62 L799.842,247.569 L799.842,247.569 C799.347,247.092 798.642,246.903 797.975,247.068 C796.903,247.333 796.249,248.418 796.514,249.49 L796.514,249.49 L816.955,332.13 L818.341,329.728 L736.537,353.383 L736.537,353.383 C735.878,353.573 735.362,354.089 735.171,354.749 C734.865,355.81 735.477,356.919 736.538,357.225 L736.538,357.225 L818.433,380.88 L817.047,378.479 L796.514,461.629 C796.249,462.702 796.904,463.786 797.976,464.05 C799.048,464.315 800.132,463.66 800.397,462.588 L800.397,462.588" fill="#000000"/>
    </g>
    <g>
      <path d="M983.744,708.267 L861.023,637.56 L862.025,639.291 L861.922,497.337 L860.921,499.072 L983.744,428.268 L981.746,428.267 L1104.494,499.131 L1103.494,497.4 L1103.586,639.183 L1104.587,637.449 L981.747,708.267 L981.747,708.267 C980.79,708.819 980.461,710.042 981.013,710.999 C981.565,711.956 982.787,712.284 983.744,711.733 C983.744,711.733 983.744,711.733 983.744,711.733 L1106.584,640.915 L1106.584,640.915 C1107.204,640.557 1107.586,639.896 1107.586,639.181 L1107.586,639.181 L1107.494,497.398 L1107.494,497.398 C1107.493,496.683 1107.112,496.024 1106.494,495.667 L1106.494,495.667 L983.745,424.803 L983.745,424.803 C983.127,424.446 982.365,424.446 981.747,424.803 L981.747,424.803 L858.923,495.606 L858.923,495.606 C858.303,495.964 857.922,496.625 857.922,497.34 L857.922,497.34 L858.025,639.294 L858.025,639.294 C858.025,640.009 858.407,640.669 859.026,641.026 L859.026,641.026 L981.747,711.733 C982.704,712.284 983.927,711.956 984.478,710.998 C985.03,710.041 984.701,708.818 983.744,708.267 L983.744,708.267" fill="#F0F0F0"/>
      <path d="M923.329,675.573 L943.862,592.422 L943.862,592.422 C944.12,591.379 943.508,590.319 942.476,590.021 L942.476,590.021 L860.58,566.367 L860.581,570.21 L942.384,546.555 L942.384,546.555 C943.416,546.257 944.028,545.197 943.77,544.154 L943.77,544.154 L923.329,461.514 L920.001,463.435 L981.359,522.487 L981.359,522.487 C982.133,523.232 983.358,523.232 984.133,522.487 L984.133,522.487 L1045.469,463.435 L1042.14,461.514 L1021.721,543.985 L1021.721,543.985 C1021.463,545.03 1022.076,546.091 1023.11,546.388 L1023.11,546.388 L1105.033,569.945 L1105.027,566.102 L1023.03,589.937 L1023.03,589.937 C1022.001,590.236 1021.39,591.294 1021.647,592.335 L1021.647,592.335 L1042.14,675.571 L1045.475,673.659 L984.139,614.055 L984.139,614.055 C983.363,613.301 982.128,613.301 981.352,614.055 L981.352,614.055 L919.994,673.659 L919.994,673.659 C919.202,674.428 919.183,675.694 919.953,676.487 C920.723,677.279 921.989,677.297 922.781,676.528 C922.781,676.528 922.781,676.528 922.781,676.528 L984.139,616.924 L981.352,616.924 L1042.688,676.528 L1042.688,676.528 C1043.182,677.008 1043.89,677.2 1044.56,677.035 C1045.632,676.771 1046.288,675.688 1046.024,674.615 L1046.024,674.615 L1025.531,591.379 L1024.147,593.778 L1106.144,569.943 L1106.144,569.943 C1106.803,569.752 1107.318,569.235 1107.508,568.575 C1107.813,567.514 1107.2,566.406 1106.138,566.101 L1106.138,566.101 L1024.215,542.544 L1025.604,544.947 L1046.023,462.475 L1046.023,462.475 C1046.188,461.808 1045.999,461.102 1045.522,460.607 C1044.756,459.811 1043.49,459.787 1042.694,460.553 L1042.694,460.553 L981.358,519.605 L984.132,519.605 L922.774,460.553 L922.774,460.553 C922.279,460.077 921.574,459.888 920.907,460.053 C919.835,460.318 919.181,461.402 919.446,462.474 L919.446,462.474 L939.887,545.114 L941.273,542.713 L859.469,566.367 L859.469,566.367 C858.81,566.558 858.294,567.074 858.104,567.733 C857.797,568.795 858.409,569.903 859.47,570.21 L859.47,570.21 L941.366,593.864 L939.979,591.463 L919.446,674.614 C919.181,675.686 919.836,676.77 920.908,677.035 C921.98,677.3 923.064,676.645 923.329,675.573 L923.329,675.573" fill="#000000"/>
    </g>
    <g>
      <path d="M858.158,922.285 L735.438,851.578 L736.439,853.31 L736.337,711.356 L735.335,713.09 L858.159,642.286 L856.16,642.286 L978.908,713.149 L977.908,711.419 L978,853.202 L979.001,851.468 L856.161,922.286 L856.161,922.286 C855.204,922.837 854.876,924.06 855.427,925.017 C855.979,925.974 857.202,926.303 858.159,925.751 C858.159,925.751 858.159,925.751 858.159,925.751 L980.999,854.933 L980.999,854.933 C981.619,854.576 982,853.915 982,853.199 L982,853.199 L981.908,711.416 L981.908,711.416 C981.908,710.702 981.527,710.042 980.908,709.685 L980.908,709.685 L858.16,638.822 L858.16,638.822 C857.542,638.465 856.78,638.464 856.161,638.821 L856.161,638.821 L733.338,709.625 L733.338,709.625 C732.718,709.982 732.336,710.643 732.337,711.359 L732.337,711.359 L732.439,853.313 L732.439,853.313 C732.44,854.027 732.822,854.687 733.441,855.044 L733.441,855.044 L856.161,925.751 C857.119,926.303 858.341,925.974 858.893,925.017 C859.444,924.06 859.115,922.837 858.158,922.285 L858.158,922.285" fill="#F0F0F0"/>
      <path d="M797.744,889.591 L818.277,806.441 L818.277,806.441 C818.534,805.398 817.922,804.338 816.89,804.04 L816.89,804.04 L734.994,780.385 L734.995,784.228 L816.799,760.574 L816.799,760.574 C817.831,760.275 818.442,759.215 818.185,758.172 L818.185,758.172 L797.744,675.532 L794.415,677.454 L855.773,736.505 L855.773,736.505 C856.548,737.251 857.773,737.251 858.547,736.505 L858.547,736.505 L919.883,677.453 L916.555,675.532 L896.136,758.004 L896.136,758.004 C895.877,759.048 896.491,760.109 897.524,760.407 L897.524,760.407 L979.447,783.963 L979.442,780.121 L897.445,803.955 L897.445,803.955 C896.415,804.255 895.805,805.313 896.061,806.354 L896.061,806.354 L916.554,889.59 L919.89,887.677 L858.554,828.073 L858.554,828.073 C857.778,827.319 856.543,827.319 855.766,828.073 L855.766,828.073 L794.408,887.677 L794.408,887.677 C793.616,888.447 793.598,889.713 794.367,890.505 C795.137,891.297 796.403,891.316 797.196,890.546 C797.196,890.546 797.196,890.546 797.196,890.546 L858.553,830.942 L855.766,830.942 L917.102,890.546 L917.102,890.546 C917.597,891.027 918.304,891.219 918.974,891.054 C920.047,890.79 920.702,889.706 920.438,888.633 L920.438,888.633 L899.945,805.398 L898.561,807.796 L980.558,783.962 L980.558,783.962 C981.218,783.77 981.732,783.254 981.922,782.594 C982.227,781.532 981.614,780.424 980.553,780.119 L980.553,780.119 L898.63,756.562 L900.018,758.965 L920.437,676.493 L920.437,676.493 C920.603,675.826 920.413,675.121 919.937,674.625 C919.171,673.83 917.905,673.806 917.109,674.572 L917.109,674.572 L855.773,733.624 L858.547,733.623 L797.189,674.572 L797.189,674.572 C796.694,674.095 795.989,673.906 795.322,674.071 C794.25,674.336 793.595,675.421 793.861,676.493 L793.861,676.493 L814.302,759.133 L815.687,756.731 L733.884,780.385 L733.884,780.385 C733.224,780.576 732.708,781.092 732.518,781.752 C732.211,782.813 732.823,783.922 733.884,784.228 L733.884,784.228 L815.78,807.883 L814.393,805.482 L793.86,888.632 C793.596,889.704 794.25,890.788 795.323,891.053 C796.395,891.318 797.479,890.663 797.744,889.591 L797.744,889.591" fill="#000000"/>
    </g>
  </g>
</svg>
