<?xml version="1.0" encoding="UTF-8"?>
<!DOCTYPE svg PUBLIC "-//W3C//DTD SVG 1.1//EN" "http://www.w3.org/Graphics/SVG/1.1/DTD/svg11.dtd">
<svg version="1.1" xmlns="http://www.w3.org/2000/svg" xmlns:xlink="http://www.w3.org/1999/xlink" x="0" y="0" width="425.197" height="425.197" viewBox="0, 0, 425.197, 425.197">
  <g id="construction">
    <path d="M196.562,159.254 L147.505,143.38 L148.792,145.901 L170.745,78.437 L167.667,79.436 L225.004,121.095 L224.561,118.302 L194.327,159.982 L194.327,159.982 C193.679,160.876 193.878,162.127 194.772,162.775 C195.666,163.424 196.917,163.225 197.565,162.331 C197.565,162.331 197.565,162.331 197.565,162.331 L227.799,120.651 L227.799,120.651 C228.447,119.757 228.248,118.507 227.355,117.859 L227.355,117.859 L170.019,76.2 L170.019,76.2 C169.849,76.077 169.661,75.981 169.462,75.917 C168.412,75.575 167.283,76.149 166.941,77.199 L166.941,77.199 L144.988,144.664 L144.988,144.664 C144.987,144.665 144.987,144.666 144.987,144.667 C144.647,145.718 145.223,146.845 146.274,147.185 L146.274,147.185 L195.33,163.059 C196.381,163.399 197.509,162.823 197.849,161.772 C198.189,160.721 197.613,159.594 196.562,159.254 L196.562,159.254 M280.331,144.693 L258.331,77.198 L258.331,77.198 C257.989,76.148 256.86,75.574 255.81,75.917 C255.612,75.981 255.426,76.076 255.257,76.198 L255.257,76.198 L197.812,117.762 L197.812,117.762 C196.917,118.41 196.717,119.66 197.364,120.555 C197.365,120.557 197.367,120.559 197.368,120.56 L197.368,120.56 L227.712,162.217 L227.712,162.217 C228.219,162.914 229.117,163.207 229.938,162.944 L229.938,162.944 L279.04,147.217 L279.04,147.217 C280.092,146.88 280.671,145.754 280.334,144.702 C279.997,143.651 278.872,143.071 277.82,143.408 C277.82,143.408 277.82,143.408 277.82,143.408 L228.718,159.134 L230.945,159.861 L200.601,118.205 L200.157,121.003 L257.602,79.439 L254.528,78.438 L276.528,145.932 C276.87,146.982 277.999,147.556 279.049,147.214 C280.1,146.872 280.674,145.743 280.331,144.693 L280.331,144.693 M307.362,197.426 L329.257,130.002 L329.257,130.002 C329.598,128.951 329.023,127.823 327.972,127.482 C327.774,127.417 327.566,127.384 327.357,127.384 L327.357,127.384 L256.288,127.299 L256.288,127.299 C255.184,127.298 254.287,128.193 254.286,129.297 C254.286,129.3 254.286,129.303 254.286,129.307 L254.286,129.307 L254.469,180.734 L254.469,180.734 C254.472,181.595 255.026,182.358 255.845,182.627 L255.845,182.627 L304.836,198.708 L304.836,198.708 C305.886,199.053 307.016,198.481 307.36,197.432 C307.705,196.382 307.133,195.252 306.084,194.908 L257.092,178.826 L258.469,180.719 L258.286,129.292 L256.284,131.299 L327.352,131.384 L325.452,128.766 L303.558,196.19 C303.558,196.19 303.558,196.19 303.558,196.19 C303.216,197.241 303.792,198.369 304.842,198.71 C305.893,199.051 307.021,198.476 307.362,197.426 L307.362,197.426 M298.302,255.851 L355.508,214.215 L355.508,214.215 C356.401,213.565 356.598,212.314 355.948,211.421 C355.824,211.252 355.675,211.103 355.505,210.98 L355.505,210.98 L298.264,169.447 L298.264,169.447 C297.371,168.799 296.122,168.996 295.473,169.887 L295.473,169.887 L265.26,211.346 L265.26,211.346 C264.749,212.046 264.748,212.996 265.257,213.698 L265.257,213.698 L295.506,255.409 L295.506,255.409 C296.154,256.303 297.405,256.502 298.299,255.853 C299.193,255.205 299.393,253.954 298.744,253.06 L268.495,211.349 L268.492,213.701 L298.705,172.243 L295.915,172.684 L353.156,214.217 L353.154,210.981 L295.948,252.617 C295.055,253.267 294.858,254.518 295.508,255.411 C296.158,256.304 297.409,256.501 298.302,255.851 L298.302,255.851 M329.257,295.191 L307.349,227.752 L307.349,227.752 C307.007,226.702 305.879,226.127 304.828,226.468 C304.827,226.469 304.825,226.469 304.823,226.47 L304.823,226.47 L255.937,242.512 L255.937,242.512 C255.119,242.78 254.565,243.541 254.56,244.402 L254.56,244.402 L254.286,295.699 L254.286,295.699 C254.28,296.803 255.171,297.704 256.275,297.71 C256.278,297.71 256.281,297.71 256.283,297.71 L256.283,297.71 L327.352,297.809 L327.352,297.809 C328.456,297.81 329.353,296.916 329.355,295.811 C329.356,294.707 328.462,293.81 327.357,293.809 C327.357,293.809 327.357,293.809 327.357,293.809 L256.289,293.71 L258.286,295.72 L258.56,244.423 L257.184,246.313 L306.07,230.27 L303.544,228.988 L325.452,296.427 C325.794,297.477 326.922,298.052 327.972,297.711 C329.023,297.369 329.598,296.241 329.257,295.191 L329.257,295.191 M258.331,347.997 L280.331,280.428 L280.331,280.428 C280.673,279.377 280.099,278.249 279.049,277.907 C279.045,277.905 279.041,277.904 279.037,277.903 L279.037,277.903 L229.994,262.28 L229.994,262.28 C229.175,262.019 228.281,262.311 227.773,263.005 L227.773,263.005 L197.37,304.56 L197.37,304.56 C196.718,305.452 196.912,306.703 197.803,307.355 C197.806,307.357 197.808,307.359 197.811,307.36 L197.811,307.36 L255.256,348.997 L255.256,348.997 C256.15,349.645 257.401,349.446 258.049,348.551 C258.697,347.657 258.498,346.406 257.603,345.758 C257.603,345.758 257.603,345.758 257.603,345.758 L200.158,304.122 L200.598,306.922 L231.001,265.367 L228.78,266.091 L277.823,281.714 L276.528,279.189 L254.528,346.758 C254.528,346.758 254.528,346.758 254.528,346.758 C254.186,347.809 254.76,348.937 255.81,349.279 C256.861,349.621 257.989,349.047 258.331,347.997 L258.331,347.997 M227.795,304.41 L197.541,263.006 L197.541,263.006 C197.033,262.31 196.137,262.018 195.317,262.281 L195.317,262.281 L146.28,277.966 L146.28,277.966 C145.228,278.303 144.648,279.429 144.985,280.481 C144.986,280.485 144.987,280.488 144.989,280.492 L144.989,280.492 L167.037,347.998 L167.037,347.998 C167.38,349.048 168.509,349.622 169.559,349.279 C169.759,349.213 169.948,349.117 170.118,348.993 L170.118,348.993 L227.359,307.205 L227.359,307.205 C228.251,306.554 228.446,305.303 227.795,304.411 C227.144,303.519 225.893,303.323 225,303.975 C225,303.975 225,303.975 225,303.975 L167.759,345.762 L170.84,346.757 L148.791,279.25 L147.499,281.776 L196.536,266.091 L194.311,265.366 L224.565,306.77 C224.565,306.77 224.565,306.77 224.565,306.77 C225.216,307.662 226.468,307.856 227.36,307.205 C228.251,306.553 228.446,305.302 227.795,304.41 L227.795,304.41 M170.989,295.799 L170.756,244.475 L170.756,244.475 C170.752,243.613 170.196,242.851 169.377,242.583 L169.377,242.583 L120.008,226.469 L120.008,226.469 C118.958,226.126 117.829,226.699 117.486,227.749 C117.484,227.754 117.483,227.759 117.481,227.763 L117.481,227.763 L96.003,295.201 L96.003,295.201 C95.668,296.254 96.249,297.379 97.301,297.714 C97.498,297.777 97.702,297.808 97.908,297.808 L97.908,297.808 L168.989,297.809 L168.989,297.809 C170.094,297.809 170.989,296.913 170.989,295.809 C170.989,294.704 170.094,293.809 168.989,293.809 L97.908,293.808 L99.814,296.415 L121.293,228.977 L118.766,230.271 L168.135,246.386 L166.756,244.494 L166.989,295.818 C166.994,296.922 167.894,297.814 168.998,297.809 C170.103,297.804 170.994,296.904 170.989,295.799 L170.989,295.799 M129.656,255.453 L161.679,213.763 L161.679,213.763 C162.229,213.047 162.232,212.051 161.685,211.333 L161.685,211.333 L130.122,169.854 L130.122,169.854 C129.466,168.991 128.242,168.809 127.362,169.442 L127.362,169.442 L69.697,210.976 L69.697,210.976 C68.801,211.621 68.598,212.871 69.243,213.767 C69.367,213.939 69.518,214.091 69.689,214.215 L69.689,214.215 L126.893,255.851 L126.893,255.851 C127.786,256.501 129.037,256.304 129.687,255.411 C130.337,254.518 130.14,253.267 129.247,252.617 L72.043,210.981 L72.035,214.221 L129.7,172.688 L126.939,172.276 L158.502,213.755 L158.507,211.326 L126.484,253.016 C125.811,253.892 125.975,255.148 126.851,255.82 C127.727,256.493 128.983,256.329 129.656,255.453 L129.656,255.453 M170.919,180.839 L170.989,129.302 L170.989,129.302 C170.991,128.198 170.097,127.301 168.992,127.299 C168.991,127.299 168.99,127.299 168.989,127.299 L168.989,127.299 L97.908,127.312 L97.908,127.312 C96.803,127.313 95.908,128.208 95.908,129.313 C95.908,129.524 95.942,129.734 96.008,129.934 L96.008,129.934 L118.094,197.43 L118.094,197.43 C118.438,198.479 119.566,199.052 120.616,198.709 L120.616,198.709 L169.54,182.738 L169.54,182.738 C170.59,182.395 171.163,181.266 170.82,180.216 C170.478,179.166 169.349,178.593 168.299,178.935 C168.299,178.935 168.299,178.935 168.299,178.935 L119.375,194.907 L121.896,196.186 L99.809,128.69 L97.909,131.312 L168.99,131.299 L166.989,129.297 L166.919,180.834 C166.918,181.939 167.812,182.835 168.916,182.837 C170.021,182.838 170.918,181.944 170.919,180.839 L170.919,180.839" fill="#000000"/>
  </g>
</svg>
